<svg xmlns="http://www.w3.org/2000/svg" xmlns:xlink="http://www.w3.org/1999/xlink" width="768" zoomAndPan="magnify" viewBox="0 0 576 503.999982" height="672" preserveAspectRatio="xMidYMid meet" version="1.0"><defs><g/><clipPath id="a5b0a645ab"><path d="M 168.871094 122.050781 L 407.371094 122.050781 L 407.371094 360.550781 L 168.871094 360.550781 Z M 168.871094 122.050781 " clip-rule="nonzero"/></clipPath><clipPath id="a0e68d0128"><path d="M 152 308.300781 L 195 308.300781 L 195 360 L 152 360 Z M 152 308.300781 " clip-rule="nonzero"/></clipPath><clipPath id="1166726868"><path d="M 381 306.050781 L 424 306.050781 L 424 357.800781 L 381 357.800781 Z M 381 306.050781 " clip-rule="nonzero"/></clipPath><clipPath id="6909876dbf"><path d="M 119.675781 322.257812 L 151 322.257812 L 151 360 L 119.675781 360 Z M 119.675781 322.257812 " clip-rule="nonzero"/></clipPath><clipPath id="031c3d7e6c"><path d="M 425.125 322.257812 L 456.320312 322.257812 L 456.320312 360 L 425.125 360 Z M 425.125 322.257812 " clip-rule="nonzero"/></clipPath></defs><g clip-path="url(#a5b0a645ab)"><path fill="#000001" d="M 372.234375 156.945312 C 349.734375 134.445312 319.816406 122.050781 288 122.050781 C 256.179688 122.050781 226.261719 134.445312 203.765625 156.945312 C 181.265625 179.441406 168.871094 209.359375 168.871094 241.179688 C 168.871094 272.996094 181.265625 302.914062 203.765625 325.414062 C 226.261719 347.914062 256.179688 360.304688 288 360.304688 C 319.816406 360.304688 349.734375 347.914062 372.234375 325.414062 C 394.734375 302.914062 407.125 272.996094 407.125 241.179688 C 407.125 209.359375 394.734375 179.441406 372.234375 156.945312 Z M 371.171875 324.351562 C 348.953125 346.570312 319.417969 358.804688 288 358.804688 C 256.582031 358.804688 227.042969 346.570312 204.824219 324.351562 C 182.605469 302.132812 170.375 272.597656 170.375 241.179688 C 170.375 209.761719 182.605469 180.222656 204.824219 158.003906 C 227.042969 135.785156 256.582031 123.554688 288 123.554688 C 319.417969 123.554688 348.953125 135.785156 371.171875 158.003906 C 385.476562 172.308594 395.632812 189.648438 401.058594 208.570312 C 401.070312 208.667969 401.09375 208.765625 401.140625 208.847656 C 404.089844 219.230469 405.625 230.085938 405.625 241.179688 C 405.625 272.597656 393.390625 302.132812 371.171875 324.351562 Z M 398.539062 237.15625 C 398.539062 237.109375 398.539062 237.0625 398.53125 237.019531 C 398.421875 234 398.191406 230.996094 397.839844 228.023438 C 397.839844 228.015625 397.839844 228.003906 397.835938 227.996094 C 394.9375 203.433594 383.964844 180.710938 366.210938 162.957031 C 345.324219 142.066406 317.546875 130.5625 288 130.5625 C 282.839844 130.5625 277.632812 130.921875 272.527344 131.632812 C 264.285156 132.78125 256.179688 134.875 248.4375 137.84375 C 227.753906 145.761719 210.082031 159.578125 197.328125 177.792969 C 184.277344 196.429688 177.382812 218.347656 177.382812 241.179688 C 177.382812 243.269531 177.445312 245.351562 177.5625 247.425781 C 177.5625 247.429688 177.5625 247.433594 177.5625 247.433594 C 177.5625 247.449219 177.566406 247.46875 177.566406 247.484375 C 179.082031 274.664062 190.386719 300 209.78125 319.398438 C 230.671875 340.289062 258.453125 351.796875 288 351.796875 C 315.46875 351.796875 341.402344 341.847656 361.703125 323.667969 C 361.707031 323.660156 361.707031 323.660156 361.714844 323.65625 C 363.246094 322.28125 364.75 320.867188 366.21875 319.398438 C 387.109375 298.503906 398.617188 270.726562 398.617188 241.179688 C 398.617188 239.832031 398.585938 238.492188 398.539062 237.15625 Z M 394.984375 219.5625 L 393.960938 219 C 393.601562 218.800781 393.140625 218.929688 392.941406 219.296875 C 392.742188 219.660156 392.871094 220.117188 393.238281 220.316406 L 395.339844 221.476562 C 395.652344 223.214844 395.929688 224.960938 396.160156 226.71875 L 393.957031 225.507812 C 393.597656 225.308594 393.136719 225.4375 392.9375 225.800781 C 392.734375 226.167969 392.871094 226.625 393.230469 226.824219 L 396.378906 228.554688 C 396.671875 231.078125 396.875 233.621094 396.992188 236.183594 C 392.917969 234.957031 389.839844 229.164062 389.839844 222.410156 C 389.839844 218.179688 391.027344 214.246094 393.0625 211.582031 C 393.808594 214.210938 394.449219 216.871094 394.984375 219.5625 Z M 365.15625 318.335938 C 363.765625 319.726562 362.34375 321.070312 360.890625 322.375 L 333.300781 322.375 C 332.886719 322.375 332.550781 322.710938 332.550781 323.125 C 332.550781 323.542969 332.886719 323.875 333.300781 323.875 L 359.195312 323.875 C 339.402344 340.96875 314.417969 350.296875 288 350.296875 C 258.851562 350.296875 231.449219 338.941406 210.84375 318.335938 C 209.871094 317.363281 208.925781 316.367188 207.996094 315.367188 L 218.253906 315.367188 C 218.671875 315.367188 219.007812 315.03125 219.007812 314.617188 C 219.007812 314.203125 218.671875 313.867188 218.253906 313.867188 L 206.621094 313.867188 C 204.59375 311.597656 202.667969 309.261719 200.851562 306.859375 L 227.148438 306.859375 C 227.566406 306.859375 227.898438 306.523438 227.898438 306.109375 C 227.898438 305.691406 227.566406 305.355469 227.148438 305.355469 L 199.730469 305.355469 C 189.050781 290.738281 182.25 273.792969 179.855469 255.804688 L 195.179688 255.804688 C 195.597656 255.804688 195.929688 255.46875 195.929688 255.054688 C 195.929688 254.636719 195.597656 254.300781 195.179688 254.300781 L 179.664062 254.300781 C 179.421875 252.277344 179.238281 250.234375 179.113281 248.1875 L 216.667969 248.1875 C 217.082031 248.1875 217.417969 247.851562 217.417969 247.433594 C 217.417969 247.019531 217.082031 246.683594 216.667969 246.683594 L 213.167969 246.683594 L 213.167969 195.734375 L 227.183594 175.949219 L 251.085938 164.242188 C 251.101562 164.25 251.113281 164.261719 251.128906 164.273438 L 275.484375 176.199219 L 289.5 195.984375 L 289.5 246.683594 L 274.984375 246.683594 L 274.984375 219.90625 C 274.984375 219.890625 274.980469 219.875 274.980469 219.859375 C 274.980469 219.835938 274.976562 219.804688 274.96875 219.78125 C 274.964844 219.757812 274.960938 219.730469 274.957031 219.710938 C 274.949219 219.6875 274.941406 219.664062 274.933594 219.640625 C 274.925781 219.617188 274.914062 219.589844 274.902344 219.566406 C 274.894531 219.550781 274.890625 219.539062 274.878906 219.527344 C 274.875 219.519531 274.871094 219.515625 274.871094 219.511719 C 274.855469 219.484375 274.839844 219.464844 274.820312 219.445312 C 274.804688 219.425781 274.789062 219.410156 274.773438 219.394531 C 274.761719 219.375 274.742188 219.359375 274.71875 219.34375 C 274.699219 219.332031 274.683594 219.316406 274.664062 219.300781 C 274.644531 219.285156 274.625 219.273438 274.601562 219.261719 C 274.582031 219.25 274.558594 219.234375 274.539062 219.230469 C 274.515625 219.21875 274.488281 219.210938 274.464844 219.207031 C 274.445312 219.199219 274.425781 219.191406 274.398438 219.183594 C 274.375 219.179688 274.351562 219.175781 274.324219 219.175781 C 274.300781 219.171875 274.273438 219.171875 274.25 219.171875 C 274.238281 219.171875 274.234375 219.171875 274.226562 219.171875 L 227.675781 219.171875 C 227.664062 219.171875 227.660156 219.171875 227.648438 219.171875 C 227.625 219.171875 227.601562 219.175781 227.574219 219.175781 C 227.550781 219.179688 227.523438 219.179688 227.5 219.183594 C 227.480469 219.191406 227.460938 219.195312 227.441406 219.207031 C 227.414062 219.214844 227.386719 219.21875 227.359375 219.234375 C 227.339844 219.246094 227.324219 219.253906 227.304688 219.265625 C 227.28125 219.28125 227.253906 219.289062 227.234375 219.304688 C 227.214844 219.316406 227.199219 219.332031 227.183594 219.34375 C 227.164062 219.359375 227.144531 219.378906 227.125 219.402344 C 227.109375 219.414062 227.097656 219.429688 227.085938 219.449219 C 227.066406 219.46875 227.050781 219.496094 227.035156 219.519531 C 227.03125 219.527344 227.023438 219.53125 227.023438 219.535156 C 227.015625 219.550781 227.015625 219.5625 227.003906 219.574219 C 226.988281 219.601562 226.980469 219.625 226.96875 219.652344 C 226.960938 219.675781 226.953125 219.695312 226.949219 219.722656 C 226.945312 219.746094 226.933594 219.765625 226.933594 219.789062 C 226.929688 219.816406 226.929688 219.847656 226.925781 219.871094 C 226.925781 219.886719 226.917969 219.902344 226.917969 219.917969 L 226.917969 239.636719 C 226.917969 240.050781 227.253906 240.386719 227.671875 240.386719 C 228.085938 240.386719 228.421875 240.050781 228.421875 239.636719 L 228.421875 221.234375 L 249.484375 233.671875 L 240.023438 239.265625 C 239.667969 239.476562 239.546875 239.9375 239.757812 240.292969 C 239.898438 240.527344 240.148438 240.664062 240.402344 240.664062 C 240.535156 240.664062 240.664062 240.628906 240.785156 240.558594 L 250.960938 234.542969 L 271.492188 246.683594 L 252.496094 246.683594 C 252.082031 246.683594 251.746094 247.019531 251.746094 247.433594 C 251.746094 247.851562 252.082031 248.1875 252.496094 248.1875 L 343.644531 248.1875 C 344.058594 248.1875 344.394531 247.851562 344.394531 247.433594 C 344.394531 247.019531 344.058594 246.683594 343.644531 246.683594 L 339.257812 246.683594 C 339.289062 246.605469 339.304688 246.523438 339.304688 246.433594 L 339.304688 199.140625 C 339.304688 190.789062 332.511719 183.996094 324.164062 183.996094 C 321.378906 183.996094 318.773438 184.753906 316.53125 186.070312 L 316.53125 163.597656 C 316.53125 154.484375 309.121094 147.078125 300.011719 147.078125 C 290.902344 147.078125 283.496094 154.484375 283.496094 163.597656 L 283.496094 176.679688 L 279.09375 170.660156 C 279.019531 170.558594 278.925781 170.476562 278.816406 170.421875 L 251.839844 157.464844 C 251.640625 157.144531 251.230469 157.019531 250.886719 157.1875 L 223.855469 170.171875 C 223.746094 170.226562 223.644531 170.308594 223.574219 170.410156 L 204.554688 196.4375 C 204.308594 196.769531 204.386719 197.242188 204.71875 197.488281 C 204.855469 197.585938 205.011719 197.632812 205.160156 197.632812 C 205.390625 197.632812 205.621094 197.527344 205.765625 197.328125 L 224.675781 171.449219 L 251.085938 158.761719 C 251.105469 158.769531 251.121094 158.785156 251.140625 158.796875 L 278 171.699219 L 296.910156 197.578125 C 297.054688 197.777344 297.285156 197.882812 297.515625 197.882812 C 297.667969 197.882812 297.824219 197.835938 297.953125 197.738281 C 298.289062 197.492188 298.367188 197.023438 298.121094 196.6875 L 284.996094 178.738281 L 284.996094 163.597656 C 284.996094 155.316406 291.734375 148.578125 300.011719 148.578125 C 308.292969 148.578125 315.027344 155.316406 315.027344 163.597656 L 315.027344 176.109375 L 300.761719 176.109375 C 300.347656 176.109375 300.011719 176.445312 300.011719 176.859375 C 300.011719 177.277344 300.347656 177.609375 300.761719 177.609375 L 315.027344 177.609375 L 315.027344 183.617188 L 300.761719 183.617188 C 300.347656 183.617188 300.011719 183.953125 300.011719 184.367188 C 300.011719 184.785156 300.347656 185.117188 300.761719 185.117188 L 315.027344 185.117188 L 315.027344 186.605469 C 315.027344 186.746094 315.066406 186.878906 315.136719 186.992188 C 313.625 188.117188 312.332031 189.523438 311.324219 191.125 L 300.761719 191.125 C 300.347656 191.125 300.011719 191.460938 300.011719 191.875 C 300.011719 192.292969 300.347656 192.628906 300.761719 192.628906 L 310.5 192.628906 C 309.621094 194.457031 309.105469 196.492188 309.035156 198.632812 L 300.761719 198.632812 C 300.347656 198.632812 300.011719 198.96875 300.011719 199.382812 C 300.011719 199.800781 300.347656 200.136719 300.761719 200.136719 L 309.023438 200.136719 L 309.023438 206.140625 L 300.761719 206.140625 C 300.347656 206.140625 300.011719 206.476562 300.011719 206.890625 C 300.011719 207.308594 300.347656 207.644531 300.761719 207.644531 L 309.023438 207.644531 L 309.023438 213.648438 L 300.761719 213.648438 C 300.347656 213.648438 300.011719 213.984375 300.011719 214.398438 C 300.011719 214.816406 300.347656 215.152344 300.761719 215.152344 L 309.023438 215.152344 L 309.023438 221.15625 L 300.761719 221.15625 C 300.347656 221.15625 300.011719 221.492188 300.011719 221.90625 C 300.011719 222.324219 300.347656 222.660156 300.761719 222.660156 L 309.023438 222.660156 L 309.023438 228.664062 L 300.761719 228.664062 C 300.347656 228.664062 300.011719 229 300.011719 229.417969 C 300.011719 229.832031 300.347656 230.167969 300.761719 230.167969 L 309.023438 230.167969 L 309.023438 236.171875 L 300.761719 236.171875 C 300.347656 236.171875 300.011719 236.507812 300.011719 236.925781 C 300.011719 237.339844 300.347656 237.675781 300.761719 237.675781 L 309.023438 237.675781 L 309.023438 246.683594 L 291.003906 246.683594 L 291.003906 195.746094 C 291.003906 195.589844 290.953125 195.441406 290.863281 195.308594 L 276.597656 175.171875 C 276.523438 175.074219 276.425781 174.988281 276.316406 174.933594 L 251.839844 162.945312 C 251.640625 162.625 251.226562 162.5 250.878906 162.671875 L 226.355469 174.683594 C 226.238281 174.738281 226.144531 174.824219 226.074219 174.921875 L 211.808594 195.058594 C 211.71875 195.183594 211.667969 195.339844 211.667969 195.496094 L 211.667969 246.683594 L 196.902344 246.683594 L 196.902344 236.128906 C 202.214844 235.542969 206.414062 228.832031 206.414062 220.65625 C 206.414062 212.101562 201.808594 205.140625 196.152344 205.140625 C 190.496094 205.140625 185.890625 212.101562 185.890625 220.65625 C 185.890625 228.832031 190.089844 235.542969 195.402344 236.128906 L 195.402344 246.683594 L 179.019531 246.683594 C 178.929688 244.859375 178.882812 243.019531 178.882812 241.179688 C 178.882812 218.65625 185.683594 197.035156 198.558594 178.65625 C 211.140625 160.6875 228.574219 147.0625 248.976562 139.25 C 256.609375 136.320312 264.605469 134.257812 272.738281 133.117188 C 277.769531 132.417969 282.902344 132.0625 288 132.0625 C 317.144531 132.0625 344.550781 143.414062 365.15625 164.019531 C 378.15625 177.019531 387.464844 192.71875 392.570312 209.851562 C 389.921875 212.757812 388.347656 217.410156 388.347656 222.410156 C 388.347656 230.191406 392.050781 236.625 397.054688 237.746094 C 397.089844 238.886719 397.117188 240.027344 397.117188 241.179688 C 397.117188 243.019531 397.070312 244.859375 396.980469 246.683594 L 374.9375 246.683594 L 374.9375 240.679688 L 377.886719 240.679688 C 377.914062 240.679688 378.050781 240.6875 378.269531 240.6875 C 379.488281 240.6875 383.289062 240.488281 385.796875 238.109375 C 387.289062 236.699219 388.046875 234.78125 388.046875 232.417969 C 388.046875 226.628906 383.996094 224.214844 381.339844 223.253906 C 382.40625 222.535156 383.375 221.332031 383.53125 219.480469 C 383.675781 217.730469 382.734375 216.273438 380.808594 215.277344 C 380.023438 214.871094 379.226562 214.625 378.695312 214.492188 C 378.710938 212.875 378.535156 208.652344 376.492188 206.492188 C 375.648438 205.597656 374.589844 205.140625 373.351562 205.140625 C 372.105469 205.140625 371.066406 205.597656 370.277344 206.496094 C 368.375 208.652344 368.476562 212.847656 368.59375 214.5 C 368.066406 214.640625 367.289062 214.878906 366.523438 215.277344 C 364.597656 216.273438 363.65625 217.722656 363.800781 219.480469 C 363.957031 221.332031 364.925781 222.535156 365.992188 223.253906 C 363.335938 224.214844 359.285156 226.628906 359.285156 232.417969 C 359.285156 234.78125 360.042969 236.695312 361.53125 238.109375 C 364.039062 240.488281 367.855469 240.6875 369.039062 240.6875 C 369.25 240.6875 369.382812 240.683594 369.402344 240.679688 L 373.441406 240.679688 L 373.441406 246.683594 L 371.628906 246.683594 C 371.214844 246.683594 370.878906 247.019531 370.878906 247.433594 C 370.878906 247.851562 371.214844 248.1875 371.628906 248.1875 L 396.894531 248.1875 C 396.585938 253.132812 395.949219 258.015625 394.988281 262.8125 L 378.496094 262.8125 C 378.082031 262.8125 377.746094 263.148438 377.746094 263.5625 C 377.746094 263.976562 378.082031 264.3125 378.496094 264.3125 L 394.664062 264.3125 C 392.195312 275.804688 387.890625 286.773438 381.890625 296.847656 L 351.082031 296.847656 C 350.667969 296.847656 350.332031 297.183594 350.332031 297.597656 C 350.332031 298.015625 350.667969 298.351562 351.082031 298.351562 L 380.972656 298.351562 C 377.601562 303.808594 373.726562 309 369.371094 313.867188 L 359.441406 313.867188 C 359.023438 313.867188 358.691406 314.203125 358.691406 314.617188 C 358.691406 315.03125 359.023438 315.367188 359.441406 315.367188 L 368 315.367188 C 367.074219 316.367188 366.128906 317.363281 365.15625 318.335938 Z M 196.902344 227.597656 L 201.328125 225.0625 C 201.6875 224.855469 201.8125 224.394531 201.605469 224.035156 C 201.402344 223.675781 200.941406 223.550781 200.582031 223.753906 L 196.902344 225.867188 L 196.902344 221.09375 L 201.328125 218.554688 C 201.6875 218.347656 201.8125 217.890625 201.605469 217.527344 C 201.402344 217.167969 200.941406 217.042969 200.582031 217.25 L 196.902344 219.359375 L 196.902344 216.09375 C 196.902344 215.675781 196.566406 215.339844 196.152344 215.339844 C 195.734375 215.339844 195.402344 215.675781 195.402344 216.09375 L 195.402344 219.386719 L 191.507812 217.242188 C 191.140625 217.042969 190.6875 217.179688 190.484375 217.539062 C 190.285156 217.902344 190.421875 218.359375 190.78125 218.558594 L 195.394531 221.097656 L 195.394531 225.890625 L 191.5 223.75 C 191.136719 223.550781 190.679688 223.683594 190.480469 224.046875 C 190.28125 224.40625 190.414062 224.867188 190.777344 225.066406 L 195.390625 227.605469 L 195.390625 234.613281 C 190.910156 234 187.382812 227.976562 187.382812 220.652344 C 187.382812 212.921875 191.3125 206.636719 196.140625 206.636719 C 200.972656 206.636719 204.910156 212.929688 204.910156 220.65625 C 204.910156 227.980469 201.382812 234.007812 196.902344 234.617188 Z M 273.484375 221.222656 L 273.484375 246.117188 L 252.4375 233.671875 Z M 250.960938 232.800781 L 230.429688 220.65625 L 271.488281 220.65625 Z M 310.523438 199.140625 C 310.523438 191.617188 316.640625 185.5 324.164062 185.5 C 331.6875 185.5 337.800781 191.617188 337.800781 199.140625 L 337.800781 202.636719 L 323.285156 202.636719 C 322.871094 202.636719 322.535156 202.972656 322.535156 203.386719 C 322.535156 203.804688 322.871094 204.140625 323.285156 204.140625 L 337.800781 204.140625 L 337.800781 210.144531 L 323.285156 210.144531 C 322.871094 210.144531 322.535156 210.480469 322.535156 210.894531 C 322.535156 211.3125 322.871094 211.648438 323.285156 211.648438 L 337.800781 211.648438 L 337.800781 217.652344 L 323.285156 217.652344 C 322.871094 217.652344 322.535156 217.988281 322.535156 218.40625 C 322.535156 218.820312 322.871094 219.15625 323.285156 219.15625 L 337.800781 219.15625 L 337.800781 225.160156 L 323.285156 225.160156 C 322.871094 225.160156 322.535156 225.496094 322.535156 225.914062 C 322.535156 226.328125 322.871094 226.664062 323.285156 226.664062 L 337.800781 226.664062 L 337.800781 232.667969 L 323.285156 232.667969 C 322.871094 232.667969 322.535156 233.003906 322.535156 233.421875 C 322.535156 233.835938 322.871094 234.171875 323.285156 234.171875 L 337.800781 234.171875 L 337.800781 240.175781 L 323.285156 240.175781 C 322.871094 240.175781 322.535156 240.511719 322.535156 240.929688 C 322.535156 241.34375 322.871094 241.679688 323.285156 241.679688 L 337.800781 241.679688 L 337.800781 246.433594 C 337.800781 246.523438 337.824219 246.605469 337.847656 246.683594 L 310.523438 246.683594 Z M 369.355469 239.175781 C 369.3125 239.175781 365.03125 239.367188 362.554688 237.015625 C 361.378906 235.898438 360.78125 234.351562 360.78125 232.417969 C 360.78125 229.394531 362.042969 227.09375 364.53125 225.582031 C 366.449219 224.414062 368.410156 224.160156 368.429688 224.15625 C 368.800781 224.109375 369.085938 223.796875 369.089844 223.417969 C 369.097656 223.042969 368.820312 222.722656 368.449219 222.664062 C 368.328125 222.644531 365.53125 222.1875 365.292969 219.351562 C 365.0625 216.597656 369.476562 215.835938 369.519531 215.828125 C 369.921875 215.761719 370.195312 215.390625 370.148438 214.992188 C 369.960938 213.507812 369.820312 209.273438 371.398438 207.484375 C 371.902344 206.914062 372.539062 206.636719 373.34375 206.636719 C 374.167969 206.636719 374.835938 206.921875 375.398438 207.511719 C 377.460938 209.695312 377.179688 214.992188 377.179688 215.039062 C 377.160156 215.425781 377.429688 215.761719 377.804688 215.828125 C 377.851562 215.832031 382.265625 216.597656 382.035156 219.351562 C 381.800781 222.1875 378.996094 222.644531 378.882812 222.660156 C 378.511719 222.714844 378.234375 223.035156 378.234375 223.410156 C 378.242188 223.785156 378.519531 224.101562 378.894531 224.144531 C 378.917969 224.144531 380.878906 224.402344 382.796875 225.570312 C 385.28125 227.089844 386.542969 229.390625 386.542969 232.410156 C 386.542969 234.339844 385.949219 235.882812 384.773438 237.003906 C 382.296875 239.363281 378.011719 239.171875 377.929688 239.167969 L 374.941406 239.167969 L 374.941406 232.75 L 379.367188 230.210938 C 379.726562 230.007812 379.851562 229.546875 379.640625 229.1875 C 379.4375 228.824219 378.976562 228.699219 378.617188 228.90625 L 374.941406 231.011719 L 374.941406 223.734375 L 379.367188 221.199219 C 379.726562 220.992188 379.851562 220.53125 379.640625 220.171875 C 379.4375 219.8125 378.976562 219.6875 378.617188 219.890625 L 374.941406 222 L 374.941406 218.730469 C 374.941406 218.3125 374.605469 217.980469 374.191406 217.980469 C 373.777344 217.980469 373.441406 218.3125 373.441406 218.730469 L 373.441406 222.023438 L 369.546875 219.882812 C 369.1875 219.679688 368.726562 219.8125 368.523438 220.175781 C 368.324219 220.542969 368.460938 220.996094 368.820312 221.199219 L 373.433594 223.734375 L 373.433594 231.03125 L 369.542969 228.890625 C 369.179688 228.691406 368.71875 228.820312 368.519531 229.1875 C 368.320312 229.550781 368.457031 230.007812 368.816406 230.207031 L 373.429688 232.746094 L 373.429688 239.175781 L 372.839844 239.175781 C 372.839844 239.175781 372.839844 239.175781 372.835938 239.175781 Z M 227.183594 215.152344 L 274.234375 215.152344 C 274.648438 215.152344 274.984375 214.816406 274.984375 214.398438 L 274.984375 209.394531 C 274.984375 208.980469 274.648438 208.644531 274.234375 208.644531 L 227.183594 208.644531 C 226.769531 208.644531 226.433594 208.980469 226.433594 209.394531 L 226.433594 214.398438 C 226.433594 214.816406 226.769531 215.152344 227.183594 215.152344 Z M 227.933594 210.144531 L 273.484375 210.144531 L 273.484375 213.648438 L 227.933594 213.648438 Z M 237.957031 194.988281 C 237.960938 195.015625 237.960938 195.035156 237.972656 195.058594 C 237.976562 195.085938 237.984375 195.105469 237.992188 195.128906 C 238 195.15625 238.007812 195.175781 238.015625 195.195312 C 238.027344 195.214844 238.035156 195.238281 238.050781 195.261719 C 238.066406 195.28125 238.078125 195.300781 238.089844 195.320312 C 238.105469 195.339844 238.121094 195.355469 238.136719 195.375 C 238.15625 195.394531 238.171875 195.414062 238.191406 195.429688 C 238.203125 195.433594 238.207031 195.445312 238.214844 195.453125 C 238.222656 195.460938 238.226562 195.460938 238.230469 195.464844 C 238.292969 195.511719 238.355469 195.550781 238.429688 195.582031 C 238.441406 195.585938 238.457031 195.585938 238.464844 195.589844 C 238.535156 195.613281 238.613281 195.628906 238.691406 195.628906 L 263.71875 195.628906 C 263.730469 195.628906 263.738281 195.625 263.753906 195.625 C 263.785156 195.625 263.808594 195.621094 263.839844 195.613281 C 263.859375 195.609375 263.882812 195.605469 263.902344 195.601562 C 263.929688 195.59375 263.953125 195.585938 263.980469 195.574219 C 264.003906 195.566406 264.023438 195.558594 264.042969 195.546875 C 264.0625 195.535156 264.082031 195.523438 264.109375 195.511719 C 264.132812 195.496094 264.152344 195.480469 264.175781 195.464844 C 264.183594 195.460938 264.195312 195.453125 264.203125 195.445312 C 264.214844 195.441406 264.21875 195.429688 264.230469 195.421875 C 264.25 195.398438 264.269531 195.386719 264.285156 195.363281 C 264.300781 195.34375 264.3125 195.328125 264.328125 195.308594 C 264.34375 195.289062 264.355469 195.269531 264.371094 195.25 C 264.378906 195.230469 264.394531 195.210938 264.40625 195.183594 C 264.414062 195.164062 264.425781 195.140625 264.429688 195.121094 C 264.4375 195.09375 264.445312 195.074219 264.449219 195.050781 C 264.453125 195.023438 264.460938 195.003906 264.464844 194.980469 C 264.46875 194.953125 264.46875 194.929688 264.472656 194.898438 C 264.472656 194.890625 264.480469 194.878906 264.480469 194.871094 L 264.480469 179.851562 C 264.480469 179.84375 264.472656 179.832031 264.472656 179.824219 C 264.472656 179.796875 264.46875 179.773438 264.464844 179.742188 C 264.460938 179.71875 264.460938 179.699219 264.449219 179.671875 C 264.445312 179.648438 264.433594 179.628906 264.429688 179.601562 C 264.417969 179.578125 264.414062 179.558594 264.40625 179.539062 C 264.394531 179.519531 264.382812 179.492188 264.371094 179.472656 C 264.355469 179.453125 264.34375 179.433594 264.328125 179.414062 C 264.3125 179.394531 264.300781 179.378906 264.285156 179.359375 C 264.265625 179.335938 264.25 179.316406 264.230469 179.304688 C 264.21875 179.296875 264.214844 179.289062 264.203125 179.277344 C 264.195312 179.269531 264.183594 179.261719 264.175781 179.257812 C 264.152344 179.242188 264.128906 179.226562 264.109375 179.210938 C 264.089844 179.199219 264.070312 179.1875 264.042969 179.175781 C 264.023438 179.167969 264.003906 179.15625 263.980469 179.152344 C 263.953125 179.144531 263.929688 179.136719 263.902344 179.128906 C 263.882812 179.121094 263.863281 179.117188 263.84375 179.117188 C 263.8125 179.113281 263.785156 179.109375 263.757812 179.109375 C 263.75 179.109375 263.738281 179.101562 263.730469 179.101562 L 238.703125 179.101562 C 238.691406 179.101562 238.683594 179.109375 238.671875 179.109375 C 238.640625 179.109375 238.613281 179.113281 238.585938 179.117188 C 238.566406 179.121094 238.546875 179.121094 238.523438 179.132812 C 238.496094 179.136719 238.472656 179.148438 238.445312 179.15625 C 238.425781 179.167969 238.402344 179.171875 238.382812 179.183594 C 238.363281 179.191406 238.339844 179.203125 238.316406 179.21875 C 238.292969 179.234375 238.269531 179.246094 238.25 179.261719 C 238.242188 179.269531 238.230469 179.273438 238.222656 179.28125 C 238.210938 179.289062 238.207031 179.296875 238.195312 179.308594 C 238.175781 179.328125 238.15625 179.34375 238.140625 179.363281 C 238.125 179.382812 238.109375 179.398438 238.097656 179.417969 C 238.082031 179.4375 238.070312 179.457031 238.054688 179.476562 C 238.046875 179.496094 238.03125 179.519531 238.019531 179.542969 C 238.011719 179.5625 238 179.589844 237.996094 179.609375 C 237.984375 179.632812 237.980469 179.652344 237.976562 179.679688 C 237.972656 179.703125 237.964844 179.722656 237.960938 179.75 C 237.957031 179.773438 237.957031 179.796875 237.949219 179.828125 C 237.949219 179.839844 237.945312 179.847656 237.945312 179.859375 L 237.945312 194.875 C 237.945312 194.882812 237.949219 194.894531 237.949219 194.90625 C 237.949219 194.9375 237.949219 194.964844 237.957031 194.988281 Z M 249.609375 194.128906 L 240.296875 194.128906 L 244.953125 188.542969 Z M 245.929688 187.371094 L 250.460938 181.9375 L 250.460938 192.800781 Z M 251.960938 181.9375 L 256.492188 187.371094 L 251.960938 192.808594 Z M 257.46875 188.542969 L 262.121094 194.128906 L 252.8125 194.128906 Z M 258.441406 187.371094 L 262.972656 181.9375 L 262.972656 192.800781 Z M 257.46875 186.199219 L 252.8125 180.613281 L 262.117188 180.613281 Z M 244.953125 186.199219 L 240.296875 180.613281 L 249.601562 180.613281 Z M 243.976562 187.371094 L 239.449219 192.808594 L 239.449219 181.941406 Z M 299.261719 159.84375 C 299.261719 159.425781 299.597656 159.089844 300.011719 159.089844 L 313.277344 159.089844 C 313.691406 159.089844 314.027344 159.425781 314.027344 159.84375 C 314.027344 160.257812 313.691406 160.59375 313.277344 160.59375 L 300.011719 160.59375 C 299.597656 160.59375 299.261719 160.257812 299.261719 159.84375 Z M 294.738281 159.84375 C 294.738281 160.257812 294.402344 160.59375 293.984375 160.59375 L 289.75 160.59375 C 289.335938 160.59375 289 160.257812 289 159.84375 C 289 159.425781 289.335938 159.089844 289.75 159.089844 L 293.984375 159.089844 C 294.402344 159.089844 294.738281 159.425781 294.738281 159.84375 Z M 330.179688 195.128906 L 333.511719 195.128906 C 333.929688 195.128906 334.265625 195.464844 334.265625 195.878906 C 334.265625 196.296875 333.929688 196.632812 333.511719 196.632812 L 330.179688 196.632812 C 329.765625 196.632812 329.429688 196.296875 329.429688 195.878906 C 329.429688 195.464844 329.769531 195.128906 330.179688 195.128906 Z M 324.945312 196.632812 L 314.777344 196.632812 C 314.363281 196.632812 314.027344 196.296875 314.027344 195.878906 C 314.027344 195.464844 314.363281 195.128906 314.777344 195.128906 L 324.945312 195.128906 C 325.359375 195.128906 325.695312 195.464844 325.695312 195.878906 C 325.695312 196.296875 325.359375 196.632812 324.945312 196.632812 Z M 326.101562 188.867188 C 326.101562 188.453125 326.433594 188.121094 326.851562 188.121094 C 326.984375 188.121094 330.140625 188.152344 332.832031 190.84375 C 333.128906 191.140625 333.128906 191.617188 332.832031 191.90625 C 332.6875 192.050781 332.492188 192.125 332.300781 192.125 C 332.113281 192.125 331.917969 192.050781 331.769531 191.90625 C 329.535156 189.667969 326.875 189.625 326.851562 189.625 C 326.429688 189.617188 326.09375 189.285156 326.101562 188.867188 Z M 300.023438 152.097656 C 299.960938 151.6875 300.246094 151.308594 300.65625 151.246094 C 300.878906 151.21875 306.089844 150.507812 308.832031 153.550781 C 309.105469 153.859375 309.082031 154.332031 308.777344 154.613281 C 308.632812 154.742188 308.457031 154.800781 308.277344 154.800781 C 308.070312 154.800781 307.867188 154.714844 307.714844 154.550781 C 305.511719 152.109375 300.917969 152.71875 300.875 152.730469 C 300.453125 152.800781 300.078125 152.507812 300.023438 152.097656 Z M 343.257812 153.34375 C 343.191406 153.753906 342.804688 154.03125 342.398438 153.964844 C 340.5 153.65625 338.984375 153.9375 337.898438 154.792969 C 336.242188 156.097656 336.054688 158.371094 336.054688 158.394531 C 336.027344 158.785156 335.699219 159.089844 335.308594 159.089844 C 334.917969 159.089844 334.589844 158.789062 334.558594 158.402344 C 334.429688 156.699219 333.863281 155.472656 332.878906 154.757812 C 331.199219 153.539062 328.78125 154.109375 328.761719 154.117188 C 328.363281 154.210938 327.953125 153.972656 327.855469 153.566406 C 327.757812 153.164062 328.003906 152.757812 328.402344 152.660156 C 328.527344 152.628906 331.503906 151.914062 333.753906 153.535156 C 334.457031 154.046875 335.003906 154.714844 335.394531 155.542969 C 335.75 154.875 336.25 154.191406 336.964844 153.625 C 338.402344 152.484375 340.316406 152.105469 342.652344 152.484375 C 343.046875 152.550781 343.324219 152.933594 343.257812 153.34375 Z M 349.867188 185.097656 C 349.765625 184.699219 350.011719 184.292969 350.410156 184.191406 C 350.535156 184.164062 353.515625 183.445312 355.761719 185.070312 C 356.46875 185.578125 357.011719 186.25 357.402344 187.074219 C 357.757812 186.410156 358.257812 185.722656 358.976562 185.160156 C 360.410156 184.019531 362.324219 183.636719 364.660156 184.019531 C 365.070312 184.082031 365.347656 184.472656 365.28125 184.878906 C 365.214844 185.289062 364.828125 185.5625 364.421875 185.5 C 362.519531 185.1875 361.007812 185.46875 359.921875 186.324219 C 358.265625 187.632812 358.078125 189.902344 358.078125 189.929688 C 358.050781 190.320312 357.722656 190.625 357.332031 190.625 C 356.941406 190.625 356.613281 190.324219 356.582031 189.933594 C 356.453125 188.230469 355.886719 187.007812 354.902344 186.289062 C 353.222656 185.074219 350.804688 185.644531 350.785156 185.648438 C 350.371094 185.746094 349.964844 185.5 349.867188 185.097656 Z M 234.691406 273.464844 C 241.59375 273.464844 247.207031 267.851562 247.207031 260.949219 C 247.207031 254.046875 241.59375 248.4375 234.691406 248.4375 C 227.789062 248.4375 222.179688 254.046875 222.179688 260.949219 C 222.179688 267.851562 227.789062 273.464844 234.691406 273.464844 Z M 234.691406 249.9375 C 240.765625 249.9375 245.703125 254.878906 245.703125 260.949219 C 245.703125 267.019531 240.765625 271.960938 234.691406 271.960938 C 228.621094 271.960938 223.679688 267.019531 223.679688 260.949219 C 223.679688 254.878906 228.621094 249.9375 234.691406 249.9375 Z M 234.691406 265.957031 C 237.449219 265.957031 239.699219 263.707031 239.699219 260.949219 C 239.699219 258.191406 237.449219 255.945312 234.691406 255.945312 C 231.933594 255.945312 229.6875 258.191406 229.6875 260.949219 C 229.6875 263.707031 231.933594 265.957031 234.691406 265.957031 Z M 234.691406 257.445312 C 236.625 257.445312 238.195312 259.019531 238.195312 260.949219 C 238.195312 262.882812 236.625 264.453125 234.691406 264.453125 C 232.761719 264.453125 231.1875 262.882812 231.1875 260.949219 C 231.1875 259.019531 232.761719 257.445312 234.691406 257.445312 Z M 357.910156 266.121094 C 362.738281 266.121094 366.667969 262.191406 366.667969 257.359375 C 366.667969 252.53125 362.738281 248.601562 357.910156 248.601562 C 353.078125 248.601562 349.148438 252.53125 349.148438 257.359375 C 349.148438 262.191406 353.078125 266.121094 357.910156 266.121094 Z M 357.910156 250.101562 C 361.914062 250.101562 365.167969 253.355469 365.167969 257.359375 C 365.167969 261.363281 361.914062 264.617188 357.910156 264.617188 C 353.90625 264.617188 350.652344 261.363281 350.652344 257.359375 C 350.652344 253.355469 353.90625 250.101562 357.910156 250.101562 Z M 357.910156 261.113281 C 359.980469 261.113281 361.664062 259.433594 361.664062 257.359375 C 361.664062 255.289062 359.980469 253.605469 357.910156 253.605469 C 355.835938 253.605469 354.15625 255.289062 354.15625 257.359375 C 354.15625 259.433594 355.835938 261.113281 357.910156 261.113281 Z M 357.910156 255.109375 C 359.148438 255.109375 360.160156 256.121094 360.160156 257.359375 C 360.160156 258.601562 359.148438 259.613281 357.910156 259.613281 C 356.667969 259.613281 355.65625 258.601562 355.65625 257.359375 C 355.65625 256.121094 356.667969 255.109375 357.910156 255.109375 Z M 309.9375 287.980469 C 301.109375 287.980469 293.921875 295.167969 293.921875 303.996094 C 293.921875 312.824219 301.109375 320.011719 309.9375 320.011719 C 318.765625 320.011719 325.953125 312.824219 325.953125 303.996094 C 325.953125 295.167969 318.773438 287.980469 309.9375 287.980469 Z M 309.9375 318.511719 C 301.933594 318.511719 295.421875 312 295.421875 303.996094 C 295.421875 295.992188 301.933594 289.480469 309.9375 289.480469 C 317.941406 289.480469 324.453125 295.992188 324.453125 303.996094 C 324.453125 312 317.941406 318.511719 309.9375 318.511719 Z M 309.9375 296.238281 C 305.660156 296.238281 302.179688 299.714844 302.179688 303.996094 C 302.179688 308.273438 305.660156 311.753906 309.9375 311.753906 C 314.21875 311.753906 317.695312 308.273438 317.695312 303.996094 C 317.695312 299.714844 314.21875 296.238281 309.9375 296.238281 Z M 309.9375 310.253906 C 306.488281 310.253906 303.679688 307.445312 303.679688 303.996094 C 303.679688 300.546875 306.488281 297.738281 309.9375 297.738281 C 313.386719 297.738281 316.195312 300.546875 316.195312 303.996094 C 316.195312 307.445312 313.390625 310.253906 309.9375 310.253906 Z M 214.019531 253.6875 L 216.84375 253.6875 C 215.925781 255.929688 215.417969 258.382812 215.417969 260.949219 C 215.417969 263.691406 215.996094 266.300781 217.035156 268.664062 L 215.613281 269.523438 C 215.257812 269.738281 215.140625 270.199219 215.355469 270.554688 C 215.496094 270.789062 215.746094 270.914062 215.996094 270.914062 C 216.128906 270.914062 216.261719 270.878906 216.382812 270.804688 L 217.683594 270.019531 C 220.933594 276.085938 227.335938 280.21875 234.683594 280.21875 C 240.703125 280.21875 246.089844 277.441406 249.625 273.101562 L 250.320312 274.175781 C 250.464844 274.394531 250.703125 274.515625 250.949219 274.515625 C 251.089844 274.515625 251.230469 274.472656 251.359375 274.394531 C 251.707031 274.167969 251.804688 273.703125 251.582031 273.351562 L 250.585938 271.820312 C 252.707031 268.722656 253.953125 264.980469 253.953125 260.949219 C 253.953125 259.4375 253.773438 257.964844 253.441406 256.550781 L 254.933594 257.355469 C 255.050781 257.414062 255.167969 257.445312 255.289062 257.445312 C 255.554688 257.445312 255.816406 257.300781 255.949219 257.050781 C 256.144531 256.683594 256.011719 256.230469 255.644531 256.035156 L 252.847656 254.527344 C 251.605469 251.035156 249.386719 248 246.519531 245.757812 L 249.011719 244.613281 C 249.386719 244.4375 249.554688 243.992188 249.382812 243.617188 C 249.214844 243.242188 248.761719 243.074219 248.386719 243.246094 L 245.113281 244.753906 C 242.105469 242.808594 238.527344 241.675781 234.6875 241.675781 C 227.214844 241.675781 220.734375 245.949219 217.535156 252.179688 L 214.019531 252.179688 C 213.605469 252.179688 213.269531 252.515625 213.269531 252.929688 C 213.269531 253.347656 213.609375 253.6875 214.019531 253.6875 Z M 234.691406 243.179688 C 244.488281 243.179688 252.460938 251.148438 252.460938 260.949219 C 252.460938 270.75 244.488281 278.71875 234.691406 278.71875 C 224.898438 278.71875 216.921875 270.75 216.921875 260.949219 C 216.921875 251.148438 224.898438 243.179688 234.691406 243.179688 Z M 335.636719 313.335938 L 333.097656 312.054688 C 333.976562 309.527344 334.464844 306.820312 334.464844 303.996094 C 334.464844 297.773438 332.132812 292.09375 328.300781 287.761719 L 330.945312 287.210938 C 331.351562 287.128906 331.609375 286.730469 331.527344 286.320312 C 331.441406 285.917969 331.046875 285.65625 330.636719 285.742188 L 327.082031 286.480469 C 322.65625 282.148438 316.601562 279.46875 309.933594 279.46875 C 307.9375 279.46875 305.992188 279.714844 304.136719 280.171875 L 302.179688 278.847656 C 301.839844 278.617188 301.367188 278.707031 301.136719 279.050781 C 300.90625 279.394531 301 279.859375 301.339844 280.089844 L 302.253906 280.707031 C 295.082031 283.078125 289.359375 288.675781 286.828125 295.777344 L 282.570312 296.753906 C 282.164062 296.84375 281.914062 297.25 282.003906 297.652344 C 282.082031 298.003906 282.394531 298.238281 282.734375 298.238281 C 282.789062 298.238281 282.84375 298.234375 282.902344 298.21875 L 286.300781 297.4375 C 285.722656 299.527344 285.40625 301.722656 285.40625 303.992188 C 285.40625 317.515625 296.410156 328.515625 309.933594 328.515625 C 320.097656 328.515625 328.84375 322.296875 332.558594 313.460938 L 334.960938 314.671875 C 335.070312 314.726562 335.183594 314.753906 335.292969 314.753906 C 335.570312 314.753906 335.835938 314.601562 335.964844 314.335938 C 336.15625 313.976562 336.011719 313.519531 335.636719 313.335938 Z M 309.9375 327.019531 C 297.246094 327.019531 286.914062 316.6875 286.914062 303.996094 C 286.914062 291.300781 297.246094 280.972656 309.9375 280.972656 C 322.632812 280.972656 332.960938 291.300781 332.960938 303.996094 C 332.960938 316.6875 322.636719 327.019531 309.9375 327.019531 Z M 339.445312 258.113281 C 339.515625 258.113281 339.589844 258.101562 339.664062 258.082031 L 342.902344 257.101562 C 342.902344 257.191406 342.898438 257.277344 342.898438 257.367188 C 342.898438 265.644531 349.636719 272.382812 357.914062 272.382812 C 362.082031 272.382812 365.863281 270.671875 368.589844 267.914062 L 369.214844 268.867188 C 369.359375 269.089844 369.601562 269.207031 369.847656 269.207031 C 369.988281 269.207031 370.132812 269.167969 370.257812 269.089844 C 370.601562 268.863281 370.703125 268.398438 370.472656 268.046875 L 369.621094 266.75 C 371.6875 264.179688 372.929688 260.914062 372.929688 257.367188 C 372.929688 255.640625 372.632812 253.980469 372.09375 252.4375 L 374.085938 252.707031 C 374.121094 252.710938 374.15625 252.710938 374.1875 252.710938 C 374.554688 252.710938 374.878906 252.4375 374.925781 252.058594 C 374.980469 251.648438 374.695312 251.269531 374.28125 251.214844 L 371.421875 250.828125 C 368.992188 245.8125 363.84375 242.351562 357.902344 242.351562 C 355.039062 242.351562 352.363281 243.15625 350.082031 244.550781 L 348.910156 242.984375 C 348.660156 242.648438 348.1875 242.585938 347.859375 242.832031 C 347.527344 243.082031 347.457031 243.546875 347.703125 243.882812 L 348.835938 245.402344 C 345.691406 247.789062 343.511719 251.390625 343.003906 255.5 L 339.214844 256.648438 C 338.820312 256.769531 338.59375 257.191406 338.714844 257.585938 C 338.824219 257.90625 339.117188 258.113281 339.445312 258.113281 Z M 357.910156 243.847656 C 365.363281 243.847656 371.421875 249.90625 371.421875 257.359375 C 371.421875 264.8125 365.363281 270.875 357.910156 270.875 C 350.457031 270.875 344.394531 264.8125 344.394531 257.359375 C 344.394531 249.90625 350.457031 243.847656 357.910156 243.847656 Z M 386.535156 255.054688 C 386.535156 254.636719 386.871094 254.300781 387.285156 254.300781 L 393.863281 254.300781 C 394.277344 254.300781 394.613281 254.636719 394.613281 255.054688 C 394.613281 255.46875 394.277344 255.804688 393.863281 255.804688 L 387.285156 255.804688 C 386.875 255.804688 386.535156 255.46875 386.535156 255.054688 Z M 329.058594 255.054688 C 329.058594 254.636719 329.394531 254.300781 329.808594 254.300781 L 333.714844 254.300781 C 334.128906 254.300781 334.464844 254.636719 334.464844 255.054688 C 334.464844 255.46875 334.128906 255.804688 333.714844 255.804688 L 329.808594 255.804688 C 329.398438 255.804688 329.058594 255.46875 329.058594 255.054688 Z M 264.816406 255.054688 C 264.816406 254.636719 265.148438 254.300781 265.566406 254.300781 L 324.164062 254.300781 C 324.578125 254.300781 324.914062 254.636719 324.914062 255.054688 C 324.914062 255.46875 324.578125 255.804688 324.164062 255.804688 L 265.566406 255.804688 C 265.148438 255.804688 264.816406 255.46875 264.816406 255.054688 Z M 201.949219 255.054688 C 201.949219 254.636719 202.28125 254.300781 202.699219 254.300781 L 205.660156 254.300781 C 206.078125 254.300781 206.414062 254.636719 206.414062 255.054688 C 206.414062 255.46875 206.078125 255.804688 205.660156 255.804688 L 202.699219 255.804688 C 202.28125 255.804688 201.949219 255.46875 201.949219 255.054688 Z M 339.445312 264.3125 L 302.878906 264.3125 C 302.464844 264.3125 302.128906 263.976562 302.128906 263.5625 C 302.128906 263.148438 302.464844 262.8125 302.878906 262.8125 L 339.445312 262.8125 C 339.859375 262.8125 340.195312 263.148438 340.195312 263.5625 C 340.195312 263.976562 339.855469 264.3125 339.445312 264.3125 Z M 288 264.3125 C 287.582031 264.3125 287.25 263.976562 287.25 263.5625 C 287.25 263.148438 287.582031 262.8125 288 262.8125 L 292.132812 262.8125 C 292.550781 262.8125 292.882812 263.148438 292.882812 263.5625 C 292.882812 263.976562 292.550781 264.3125 292.132812 264.3125 Z M 259.839844 263.5625 C 259.839844 263.148438 260.175781 262.8125 260.589844 262.8125 L 275.195312 262.8125 C 275.609375 262.8125 275.945312 263.148438 275.945312 263.5625 C 275.945312 263.976562 275.609375 264.3125 275.195312 264.3125 L 260.589844 264.3125 C 260.179688 264.3125 259.839844 263.976562 259.839844 263.5625 Z M 196.230469 263.5625 C 196.230469 263.148438 196.566406 262.8125 196.984375 262.8125 L 210.105469 262.8125 C 210.523438 262.8125 210.855469 263.148438 210.855469 263.5625 C 210.855469 263.976562 210.523438 264.3125 210.105469 264.3125 L 196.984375 264.3125 C 196.566406 264.3125 196.230469 263.976562 196.230469 263.5625 Z M 376.898438 272.070312 C 376.898438 271.65625 377.234375 271.320312 377.648438 271.320312 L 386.433594 271.320312 C 386.851562 271.320312 387.183594 271.65625 387.183594 272.070312 C 387.183594 272.488281 386.851562 272.824219 386.433594 272.824219 L 377.648438 272.824219 C 377.234375 272.824219 376.898438 272.488281 376.898438 272.070312 Z M 322.921875 272.070312 C 322.921875 271.65625 323.257812 271.320312 323.671875 271.320312 L 339.445312 271.320312 C 339.859375 271.320312 340.195312 271.65625 340.195312 272.070312 C 340.195312 272.488281 339.859375 272.824219 339.445312 272.824219 L 323.671875 272.824219 C 323.257812 272.824219 322.921875 272.488281 322.921875 272.070312 Z M 307.902344 272.824219 L 269.585938 272.824219 C 269.167969 272.824219 268.835938 272.488281 268.835938 272.070312 C 268.835938 271.65625 269.167969 271.320312 269.585938 271.320312 L 307.902344 271.320312 C 308.316406 271.320312 308.652344 271.65625 308.652344 272.070312 C 308.652344 272.488281 308.316406 272.824219 307.902344 272.824219 Z M 208.835938 271.320312 L 212.417969 271.320312 C 212.835938 271.320312 213.167969 271.65625 213.167969 272.070312 C 213.167969 272.488281 212.835938 272.824219 212.417969 272.824219 L 208.835938 272.824219 C 208.417969 272.824219 208.085938 272.488281 208.085938 272.070312 C 208.085938 271.65625 208.417969 271.320312 208.835938 271.320312 Z M 203.230469 272.824219 L 189.253906 272.824219 C 188.839844 272.824219 188.503906 272.488281 188.503906 272.070312 C 188.503906 271.65625 188.839844 271.320312 189.253906 271.320312 L 203.222656 271.320312 C 203.640625 271.320312 203.976562 271.65625 203.976562 272.070312 C 203.976562 272.488281 203.640625 272.824219 203.230469 272.824219 Z M 385.703125 280.582031 C 385.703125 280.996094 385.367188 281.332031 384.953125 281.332031 L 382.304688 281.332031 C 381.890625 281.332031 381.554688 280.996094 381.554688 280.582031 C 381.554688 280.164062 381.890625 279.828125 382.304688 279.828125 L 384.953125 279.828125 C 385.367188 279.828125 385.703125 280.164062 385.703125 280.582031 Z M 344.308594 279.828125 L 375.847656 279.828125 C 376.261719 279.828125 376.597656 280.164062 376.597656 280.582031 C 376.597656 280.996094 376.261719 281.332031 375.847656 281.332031 L 344.308594 281.332031 C 343.894531 281.332031 343.558594 280.996094 343.558594 280.582031 C 343.558594 280.164062 343.894531 279.828125 344.308594 279.828125 Z M 259.734375 280.582031 C 259.734375 280.164062 260.070312 279.828125 260.484375 279.828125 L 269.375 279.828125 C 269.789062 279.828125 270.125 280.164062 270.125 280.582031 C 270.125 280.996094 269.789062 281.332031 269.375 281.332031 L 260.484375 281.332031 C 260.070312 281.332031 259.734375 280.996094 259.734375 280.582031 Z M 219.84375 279.828125 C 220.257812 279.828125 220.59375 280.164062 220.59375 280.582031 C 220.59375 280.996094 220.257812 281.332031 219.84375 281.332031 L 208.519531 281.332031 C 208.105469 281.332031 207.769531 280.996094 207.769531 280.582031 C 207.769531 280.164062 208.105469 279.828125 208.519531 279.828125 Z M 198.789062 280.582031 C 198.789062 280.996094 198.453125 281.332031 198.039062 281.332031 L 193.167969 281.332031 C 192.753906 281.332031 192.417969 280.996094 192.417969 280.582031 C 192.417969 280.164062 192.753906 279.828125 193.167969 279.828125 L 198.039062 279.828125 C 198.453125 279.828125 198.789062 280.164062 198.789062 280.582031 Z M 367.820312 289.089844 C 367.820312 289.503906 367.484375 289.839844 367.070312 289.839844 L 363.257812 289.839844 C 362.84375 289.839844 362.507812 289.503906 362.507812 289.089844 C 362.507812 288.675781 362.84375 288.339844 363.257812 288.339844 L 367.070312 288.339844 C 367.480469 288.339844 367.820312 288.675781 367.820312 289.089844 Z M 358.660156 289.089844 C 358.660156 289.503906 358.324219 289.839844 357.910156 289.839844 L 335.300781 289.839844 C 334.882812 289.839844 334.550781 289.503906 334.550781 289.089844 C 334.550781 288.675781 334.882812 288.339844 335.300781 288.339844 L 357.910156 288.339844 C 358.324219 288.339844 358.660156 288.675781 358.660156 289.089844 Z M 282.742188 289.839844 L 280.386719 289.839844 C 279.972656 289.839844 279.636719 289.503906 279.636719 289.089844 C 279.636719 288.675781 279.972656 288.339844 280.386719 288.339844 L 282.742188 288.339844 C 283.160156 288.339844 283.496094 288.675781 283.496094 289.089844 C 283.496094 289.503906 283.160156 289.839844 282.742188 289.839844 Z M 248.101562 289.839844 C 247.6875 289.839844 247.351562 289.503906 247.351562 289.089844 C 247.351562 288.675781 247.6875 288.339844 248.101562 288.339844 L 271.070312 288.339844 C 271.488281 288.339844 271.820312 288.675781 271.820312 289.089844 C 271.820312 289.503906 271.488281 289.839844 271.070312 289.839844 Z M 233.816406 289.839844 C 233.402344 289.839844 233.066406 289.503906 233.066406 289.089844 C 233.066406 288.675781 233.402344 288.339844 233.816406 288.339844 L 237.519531 288.339844 C 237.9375 288.339844 238.269531 288.675781 238.269531 289.089844 C 238.269531 289.503906 237.9375 289.839844 237.519531 289.839844 Z M 228.003906 289.089844 C 228.003906 289.503906 227.671875 289.839844 227.253906 289.839844 L 200.265625 289.839844 C 199.851562 289.839844 199.515625 289.503906 199.515625 289.089844 C 199.515625 288.675781 199.851562 288.339844 200.265625 288.339844 L 227.253906 288.339844 C 227.664062 288.339844 228.003906 288.675781 228.003906 289.089844 Z M 340.289062 298.351562 C 339.875 298.351562 339.539062 298.015625 339.539062 297.597656 C 339.539062 297.183594 339.875 296.847656 340.289062 296.847656 L 344.203125 296.847656 C 344.621094 296.847656 344.957031 297.183594 344.957031 297.597656 C 344.957031 298.015625 344.621094 298.351562 344.203125 298.351562 Z M 263.664062 298.351562 L 229.476562 298.351562 C 229.0625 298.351562 228.726562 298.015625 228.726562 297.597656 C 228.726562 297.183594 229.0625 296.847656 229.476562 296.847656 L 263.664062 296.847656 C 264.078125 296.847656 264.414062 297.183594 264.414062 297.597656 C 264.414062 298.015625 264.074219 298.351562 263.664062 298.351562 Z M 217.75 297.597656 C 217.75 298.015625 217.414062 298.351562 217 298.351562 L 211.691406 298.351562 C 211.277344 298.351562 210.941406 298.015625 210.941406 297.597656 C 210.941406 297.183594 211.277344 296.847656 211.691406 296.847656 L 217 296.847656 C 217.414062 296.847656 217.75 297.183594 217.75 297.597656 Z M 369.703125 306.109375 C 369.703125 305.691406 370.035156 305.355469 370.453125 305.355469 L 373.207031 305.355469 C 373.621094 305.355469 373.957031 305.691406 373.957031 306.109375 C 373.957031 306.523438 373.621094 306.859375 373.207031 306.859375 L 370.453125 306.859375 C 370.035156 306.859375 369.703125 306.523438 369.703125 306.109375 Z M 364.527344 306.859375 L 340.925781 306.859375 C 340.511719 306.859375 340.175781 306.523438 340.175781 306.109375 C 340.175781 305.691406 340.511719 305.355469 340.925781 305.355469 L 364.527344 305.355469 C 364.941406 305.355469 365.277344 305.691406 365.277344 306.109375 C 365.277344 306.523438 364.941406 306.859375 364.527344 306.859375 Z M 281.136719 306.109375 C 281.136719 306.523438 280.800781 306.859375 280.386719 306.859375 L 247.472656 306.859375 C 247.054688 306.859375 246.71875 306.523438 246.71875 306.109375 C 246.71875 305.691406 247.054688 305.355469 247.472656 305.355469 L 280.386719 305.355469 C 280.796875 305.355469 281.136719 305.691406 281.136719 306.109375 Z M 239.527344 305.355469 C 239.941406 305.355469 240.277344 305.691406 240.277344 306.109375 C 240.277344 306.523438 239.941406 306.859375 239.527344 306.859375 L 236.035156 306.859375 C 235.617188 306.859375 235.285156 306.523438 235.285156 306.109375 C 235.285156 305.691406 235.617188 305.355469 236.035156 305.355469 Z M 352.578125 314.617188 C 352.578125 315.03125 352.242188 315.367188 351.828125 315.367188 L 346.851562 315.367188 C 346.4375 315.367188 346.101562 315.03125 346.101562 314.617188 C 346.101562 314.203125 346.4375 313.867188 346.851562 313.867188 L 351.828125 313.867188 C 352.238281 313.867188 352.578125 314.203125 352.578125 314.617188 Z M 273.824219 315.367188 L 228.207031 315.367188 C 227.789062 315.367188 227.453125 315.03125 227.453125 314.617188 C 227.453125 314.203125 227.789062 313.867188 228.207031 313.867188 L 273.824219 313.867188 C 274.238281 313.867188 274.574219 314.203125 274.574219 314.617188 C 274.574219 315.03125 274.234375 315.367188 273.824219 315.367188 Z M 258.6875 322.375 L 286.167969 322.375 C 286.582031 322.375 286.917969 322.710938 286.917969 323.125 C 286.917969 323.542969 286.582031 323.875 286.167969 323.875 L 258.6875 323.875 C 258.273438 323.875 257.9375 323.542969 257.9375 323.125 C 257.9375 322.710938 258.273438 322.375 258.6875 322.375 Z M 248.851562 323.125 C 248.851562 323.542969 248.515625 323.875 248.101562 323.875 L 230.53125 323.875 C 230.117188 323.875 229.78125 323.542969 229.78125 323.125 C 229.78125 322.710938 230.117188 322.375 230.53125 322.375 L 248.101562 322.375 C 248.515625 322.375 248.851562 322.710938 248.851562 323.125 Z M 226.097656 323.125 C 226.097656 323.542969 225.761719 323.875 225.347656 323.875 L 222.699219 323.875 C 222.285156 323.875 221.949219 323.542969 221.949219 323.125 C 221.949219 322.710938 222.285156 322.375 222.699219 322.375 L 225.347656 322.375 C 225.761719 322.375 226.097656 322.710938 226.097656 323.125 Z M 336.359375 331.636719 C 336.359375 331.21875 336.695312 330.882812 337.113281 330.882812 L 341.765625 330.882812 C 342.183594 330.882812 342.515625 331.21875 342.515625 331.636719 C 342.515625 332.050781 342.183594 332.386719 341.765625 332.386719 L 337.113281 332.386719 C 336.703125 332.386719 336.359375 332.050781 336.359375 331.636719 Z M 327.492188 331.636719 C 327.492188 332.050781 327.15625 332.386719 326.742188 332.386719 L 320.179688 332.386719 C 319.761719 332.386719 319.429688 332.050781 319.429688 331.636719 C 319.429688 331.21875 319.761719 330.882812 320.179688 330.882812 L 326.742188 330.882812 C 327.15625 330.882812 327.492188 331.21875 327.492188 331.636719 Z M 301.871094 332.386719 L 251.066406 332.386719 C 250.648438 332.386719 250.3125 332.050781 250.3125 331.636719 C 250.3125 331.21875 250.648438 330.882812 251.066406 330.882812 L 301.871094 330.882812 C 302.285156 330.882812 302.621094 331.21875 302.621094 331.636719 C 302.621094 332.050781 302.285156 332.386719 301.871094 332.386719 Z M 242.925781 331.636719 C 242.925781 332.050781 242.589844 332.386719 242.175781 332.386719 L 237.625 332.386719 C 237.210938 332.386719 236.875 332.050781 236.875 331.636719 C 236.875 331.21875 237.210938 330.882812 237.625 330.882812 L 242.175781 330.882812 C 242.589844 330.882812 242.925781 331.21875 242.925781 331.636719 Z M 324.214844 340.144531 C 324.214844 340.558594 323.878906 340.894531 323.460938 340.894531 L 272.867188 340.894531 C 272.453125 340.894531 272.117188 340.558594 272.117188 340.144531 C 272.117188 339.730469 272.453125 339.394531 272.867188 339.394531 L 323.457031 339.394531 C 323.871094 339.394531 324.214844 339.730469 324.214844 340.144531 Z M 265.574219 340.144531 C 265.574219 340.558594 265.238281 340.894531 264.824219 340.894531 L 259.429688 340.894531 C 259.011719 340.894531 258.679688 340.558594 258.679688 340.144531 C 258.679688 339.730469 259.011719 339.394531 259.429688 339.394531 L 264.824219 339.394531 C 265.238281 339.394531 265.574219 339.730469 265.574219 340.144531 Z M 265.574219 340.144531 " fill-opacity="1" fill-rule="nonzero"/></g><path stroke-linecap="butt" transform="matrix(0.75, 0, 0, 0.75, 107.244551, 378.568389)" fill="none" stroke-linejoin="miter" d="M 0.00205636 1.002564 L 482.01251 1.002564 " stroke="#000001" stroke-width="2" stroke-opacity="1" stroke-miterlimit="4"/><path stroke-linecap="butt" transform="matrix(0.75, 0, 0, 0.75, 107.244551, 427.963743)" fill="none" stroke-linejoin="miter" d="M 0.00205636 1.001468 L 482.01251 1.001468 " stroke="#000001" stroke-width="2" stroke-opacity="1" stroke-miterlimit="4"/><g fill="#000001" fill-opacity="1"><g transform="translate(183.2269, 408.516091)"><g><path d="M 9.5 -3.109375 C 9.5 -2.078125 9.117188 -1.269531 8.359375 -0.6875 C 7.609375 -0.113281 6.535156 0.171875 5.140625 0.171875 C 2.566406 0.171875 1.078125 -0.832031 0.671875 -2.84375 L 2.21875 -3.15625 C 2.375 -2.425781 2.695312 -1.894531 3.1875 -1.5625 C 3.6875 -1.238281 4.347656 -1.078125 5.171875 -1.078125 C 6.066406 -1.078125 6.742188 -1.25 7.203125 -1.59375 C 7.671875 -1.945312 7.90625 -2.445312 7.90625 -3.09375 C 7.90625 -3.476562 7.8125 -3.796875 7.625 -4.046875 C 7.445312 -4.296875 7.207031 -4.5 6.90625 -4.65625 C 6.613281 -4.8125 6.28125 -4.9375 5.90625 -5.03125 C 5.53125 -5.132812 5.148438 -5.234375 4.765625 -5.328125 C 3.867188 -5.566406 3.226562 -5.773438 2.84375 -5.953125 C 2.457031 -6.140625 2.148438 -6.351562 1.921875 -6.59375 C 1.691406 -6.832031 1.515625 -7.101562 1.390625 -7.40625 C 1.273438 -7.71875 1.21875 -8.082031 1.21875 -8.5 C 1.21875 -9.46875 1.554688 -10.210938 2.234375 -10.734375 C 2.921875 -11.265625 3.898438 -11.53125 5.171875 -11.53125 C 6.359375 -11.53125 7.265625 -11.320312 7.890625 -10.90625 C 8.523438 -10.488281 8.96875 -9.785156 9.21875 -8.796875 L 7.625 -8.53125 C 7.5 -9.15625 7.234375 -9.609375 6.828125 -9.890625 C 6.421875 -10.171875 5.867188 -10.3125 5.171875 -10.3125 C 3.578125 -10.3125 2.78125 -9.71875 2.78125 -8.53125 C 2.78125 -8.1875 2.851562 -7.910156 3 -7.703125 C 3.15625 -7.492188 3.359375 -7.316406 3.609375 -7.171875 C 3.867188 -7.035156 4.164062 -6.921875 4.5 -6.828125 C 4.84375 -6.742188 5.207031 -6.65625 5.59375 -6.5625 C 6.375 -6.363281 6.9375 -6.195312 7.28125 -6.0625 C 7.625 -5.925781 7.925781 -5.773438 8.1875 -5.609375 C 8.457031 -5.441406 8.6875 -5.242188 8.875 -5.015625 C 9.070312 -4.785156 9.222656 -4.515625 9.328125 -4.203125 C 9.441406 -3.898438 9.5 -3.535156 9.5 -3.109375 Z M 9.5 -3.109375 "/></g></g></g><g fill="#000001" fill-opacity="1"><g transform="translate(194.943271, 408.516091)"><g><path d="M 1.703125 -11.359375 L 8.625 -11.359375 L 8.625 -10.046875 L 5.96875 -10.046875 L 5.96875 -1.3125 L 8.625 -1.3125 L 8.625 0 L 1.703125 0 L 1.703125 -1.3125 L 4.359375 -1.3125 L 4.359375 -10.046875 L 1.703125 -10.046875 Z M 1.703125 -11.359375 "/></g></g></g><g fill="#000001" fill-opacity="1"><g transform="translate(206.659642, 408.516091)"><g><path d="M 3.234375 -10.046875 L 3.234375 -5.875 L 8.921875 -5.875 L 8.921875 -4.546875 L 3.234375 -4.546875 L 3.234375 0 L 1.625 0 L 1.625 -11.359375 L 9.125 -11.359375 L 9.125 -10.046875 Z M 3.234375 -10.046875 "/></g></g></g><g fill="#000001" fill-opacity="1"><g transform="translate(218.376012, 408.516091)"><g><path d="M 9.46875 -5.734375 C 9.46875 -3.835938 9.097656 -2.378906 8.359375 -1.359375 C 7.617188 -0.335938 6.550781 0.171875 5.15625 0.171875 C 3.757812 0.171875 2.691406 -0.328125 1.953125 -1.328125 C 1.222656 -2.335938 0.859375 -3.804688 0.859375 -5.734375 C 0.859375 -7.617188 1.222656 -9.054688 1.953125 -10.046875 C 2.679688 -11.035156 3.753906 -11.53125 5.171875 -11.53125 C 6.554688 -11.53125 7.617188 -11.039062 8.359375 -10.0625 C 9.097656 -9.09375 9.46875 -7.648438 9.46875 -5.734375 Z M 7.78125 -5.734375 C 7.78125 -8.722656 6.910156 -10.21875 5.171875 -10.21875 C 3.421875 -10.21875 2.546875 -8.722656 2.546875 -5.734375 C 2.546875 -4.210938 2.765625 -3.066406 3.203125 -2.296875 C 3.648438 -1.523438 4.304688 -1.140625 5.171875 -1.140625 C 6.078125 -1.140625 6.738281 -1.53125 7.15625 -2.3125 C 7.570312 -3.101562 7.78125 -4.242188 7.78125 -5.734375 Z M 7.78125 -5.734375 "/></g></g></g><g fill="#000001" fill-opacity="1"><g transform="translate(230.092383, 408.516091)"><g><path d="M 9.46875 -5.734375 C 9.46875 -3.835938 9.097656 -2.378906 8.359375 -1.359375 C 7.617188 -0.335938 6.550781 0.171875 5.15625 0.171875 C 3.757812 0.171875 2.691406 -0.328125 1.953125 -1.328125 C 1.222656 -2.335938 0.859375 -3.804688 0.859375 -5.734375 C 0.859375 -7.617188 1.222656 -9.054688 1.953125 -10.046875 C 2.679688 -11.035156 3.753906 -11.53125 5.171875 -11.53125 C 6.554688 -11.53125 7.617188 -11.039062 8.359375 -10.0625 C 9.097656 -9.09375 9.46875 -7.648438 9.46875 -5.734375 Z M 7.78125 -5.734375 C 7.78125 -8.722656 6.910156 -10.21875 5.171875 -10.21875 C 3.421875 -10.21875 2.546875 -8.722656 2.546875 -5.734375 C 2.546875 -4.210938 2.765625 -3.066406 3.203125 -2.296875 C 3.648438 -1.523438 4.304688 -1.140625 5.171875 -1.140625 C 6.078125 -1.140625 6.738281 -1.53125 7.15625 -2.3125 C 7.570312 -3.101562 7.78125 -4.242188 7.78125 -5.734375 Z M 7.78125 -5.734375 "/></g></g></g><g fill="#000001" fill-opacity="1"><g transform="translate(241.808755, 408.516091)"><g><path d="M 9.46875 -5.796875 C 9.46875 -3.929688 9.035156 -2.5 8.171875 -1.5 C 7.316406 -0.5 6.085938 0 4.484375 0 L 1.359375 0 L 1.359375 -11.359375 L 3.984375 -11.359375 C 5.828125 -11.359375 7.203125 -10.894531 8.109375 -9.96875 C 9.015625 -9.039062 9.46875 -7.648438 9.46875 -5.796875 Z M 7.84375 -5.796875 C 7.84375 -7.273438 7.535156 -8.351562 6.921875 -9.03125 C 6.304688 -9.707031 5.328125 -10.046875 3.984375 -10.046875 L 2.96875 -10.046875 L 2.96875 -1.3125 L 4.328125 -1.3125 C 5.523438 -1.3125 6.410156 -1.679688 6.984375 -2.421875 C 7.554688 -3.171875 7.84375 -4.296875 7.84375 -5.796875 Z M 7.84375 -5.796875 "/></g></g></g><g fill="#000001" fill-opacity="1"><g transform="translate(253.525124, 408.516091)"><g/></g></g><g fill="#000001" fill-opacity="1"><g transform="translate(265.241493, 408.516091)"><g><path d="M 9.5 -3.109375 C 9.5 -2.078125 9.117188 -1.269531 8.359375 -0.6875 C 7.609375 -0.113281 6.535156 0.171875 5.140625 0.171875 C 2.566406 0.171875 1.078125 -0.832031 0.671875 -2.84375 L 2.21875 -3.15625 C 2.375 -2.425781 2.695312 -1.894531 3.1875 -1.5625 C 3.6875 -1.238281 4.347656 -1.078125 5.171875 -1.078125 C 6.066406 -1.078125 6.742188 -1.25 7.203125 -1.59375 C 7.671875 -1.945312 7.90625 -2.445312 7.90625 -3.09375 C 7.90625 -3.476562 7.8125 -3.796875 7.625 -4.046875 C 7.445312 -4.296875 7.207031 -4.5 6.90625 -4.65625 C 6.613281 -4.8125 6.28125 -4.9375 5.90625 -5.03125 C 5.53125 -5.132812 5.148438 -5.234375 4.765625 -5.328125 C 3.867188 -5.566406 3.226562 -5.773438 2.84375 -5.953125 C 2.457031 -6.140625 2.148438 -6.351562 1.921875 -6.59375 C 1.691406 -6.832031 1.515625 -7.101562 1.390625 -7.40625 C 1.273438 -7.71875 1.21875 -8.082031 1.21875 -8.5 C 1.21875 -9.46875 1.554688 -10.210938 2.234375 -10.734375 C 2.921875 -11.265625 3.898438 -11.53125 5.171875 -11.53125 C 6.359375 -11.53125 7.265625 -11.320312 7.890625 -10.90625 C 8.523438 -10.488281 8.96875 -9.785156 9.21875 -8.796875 L 7.625 -8.53125 C 7.5 -9.15625 7.234375 -9.609375 6.828125 -9.890625 C 6.421875 -10.171875 5.867188 -10.3125 5.171875 -10.3125 C 3.578125 -10.3125 2.78125 -9.71875 2.78125 -8.53125 C 2.78125 -8.1875 2.851562 -7.910156 3 -7.703125 C 3.15625 -7.492188 3.359375 -7.316406 3.609375 -7.171875 C 3.867188 -7.035156 4.164062 -6.921875 4.5 -6.828125 C 4.84375 -6.742188 5.207031 -6.65625 5.59375 -6.5625 C 6.375 -6.363281 6.9375 -6.195312 7.28125 -6.0625 C 7.625 -5.925781 7.925781 -5.773438 8.1875 -5.609375 C 8.457031 -5.441406 8.6875 -5.242188 8.875 -5.015625 C 9.070312 -4.785156 9.222656 -4.515625 9.328125 -4.203125 C 9.441406 -3.898438 9.5 -3.535156 9.5 -3.109375 Z M 9.5 -3.109375 "/></g></g></g><g fill="#000001" fill-opacity="1"><g transform="translate(276.957861, 408.516091)"><g><path d="M 5.96875 -10.046875 L 5.96875 0 L 4.375 0 L 4.375 -10.046875 L 0.640625 -10.046875 L 0.640625 -11.359375 L 9.6875 -11.359375 L 9.6875 -10.046875 Z M 5.96875 -10.046875 "/></g></g></g><g fill="#000001" fill-opacity="1"><g transform="translate(288.67423, 408.516091)"><g><path d="M 9.46875 -5.734375 C 9.46875 -3.835938 9.097656 -2.378906 8.359375 -1.359375 C 7.617188 -0.335938 6.550781 0.171875 5.15625 0.171875 C 3.757812 0.171875 2.691406 -0.328125 1.953125 -1.328125 C 1.222656 -2.335938 0.859375 -3.804688 0.859375 -5.734375 C 0.859375 -7.617188 1.222656 -9.054688 1.953125 -10.046875 C 2.679688 -11.035156 3.753906 -11.53125 5.171875 -11.53125 C 6.554688 -11.53125 7.617188 -11.039062 8.359375 -10.0625 C 9.097656 -9.09375 9.46875 -7.648438 9.46875 -5.734375 Z M 7.78125 -5.734375 C 7.78125 -8.722656 6.910156 -10.21875 5.171875 -10.21875 C 3.421875 -10.21875 2.546875 -8.722656 2.546875 -5.734375 C 2.546875 -4.210938 2.765625 -3.066406 3.203125 -2.296875 C 3.648438 -1.523438 4.304688 -1.140625 5.171875 -1.140625 C 6.078125 -1.140625 6.738281 -1.53125 7.15625 -2.3125 C 7.570312 -3.101562 7.78125 -4.242188 7.78125 -5.734375 Z M 7.78125 -5.734375 "/></g></g></g><g fill="#000001" fill-opacity="1"><g transform="translate(300.390599, 408.516091)"><g><path d="M 8.046875 0 L 4.96875 -4.84375 L 2.96875 -4.84375 L 2.96875 0 L 1.359375 0 L 1.359375 -11.359375 L 5.421875 -11.359375 C 6.722656 -11.359375 7.71875 -11.085938 8.40625 -10.546875 C 9.09375 -10.003906 9.4375 -9.226562 9.4375 -8.21875 C 9.4375 -7.375 9.171875 -6.664062 8.640625 -6.09375 C 8.117188 -5.53125 7.414062 -5.175781 6.53125 -5.03125 L 9.90625 0 Z M 7.8125 -8.1875 C 7.8125 -9.4375 6.960938 -10.0625 5.265625 -10.0625 L 2.96875 -10.0625 L 2.96875 -6.109375 L 5.328125 -6.109375 C 6.128906 -6.109375 6.742188 -6.285156 7.171875 -6.640625 C 7.597656 -7.003906 7.8125 -7.519531 7.8125 -8.1875 Z M 7.8125 -8.1875 "/></g></g></g><g fill="#000001" fill-opacity="1"><g transform="translate(312.106968, 408.516091)"><g><path d="M 1.359375 0 L 1.359375 -11.359375 L 9.09375 -11.359375 L 9.09375 -10.046875 L 2.96875 -10.046875 L 2.96875 -6.484375 L 8.59375 -6.484375 L 8.59375 -5.1875 L 2.96875 -5.1875 L 2.96875 -1.3125 L 9.4375 -1.3125 L 9.4375 0 Z M 1.359375 0 "/></g></g></g><g fill="#000001" fill-opacity="1"><g transform="translate(323.823336, 408.516091)"><g/></g></g><g fill="#000001" fill-opacity="1"><g transform="translate(335.539705, 408.516091)"><g><path d="M 9.421875 -7.953125 C 9.421875 -7.253906 9.253906 -6.628906 8.921875 -6.078125 C 8.585938 -5.523438 8.109375 -5.09375 7.484375 -4.78125 C 6.867188 -4.476562 6.148438 -4.328125 5.328125 -4.328125 L 2.96875 -4.328125 L 2.96875 0 L 1.359375 0 L 1.359375 -11.359375 L 5.234375 -11.359375 C 6.566406 -11.359375 7.597656 -11.054688 8.328125 -10.453125 C 9.054688 -9.859375 9.421875 -9.023438 9.421875 -7.953125 Z M 7.796875 -7.921875 C 7.796875 -9.347656 6.878906 -10.0625 5.046875 -10.0625 L 2.96875 -10.0625 L 2.96875 -5.59375 L 5.109375 -5.59375 C 5.941406 -5.59375 6.597656 -5.796875 7.078125 -6.203125 C 7.554688 -6.617188 7.796875 -7.191406 7.796875 -7.921875 Z M 7.796875 -7.921875 "/></g></g></g><g fill="#000001" fill-opacity="1"><g transform="translate(347.256074, 408.516091)"><g><path d="M 7.359375 0 L 7.359375 -5.25 L 2.96875 -5.25 L 2.96875 0 L 1.359375 0 L 1.359375 -11.359375 L 2.96875 -11.359375 L 2.96875 -6.59375 L 7.359375 -6.59375 L 7.359375 -11.359375 L 8.96875 -11.359375 L 8.96875 0 Z M 7.359375 0 "/></g></g></g><g fill="#000001" fill-opacity="1"><g transform="translate(358.972443, 408.516091)"><g><path d="M 9.46875 -5.734375 C 9.46875 -3.835938 9.097656 -2.378906 8.359375 -1.359375 C 7.617188 -0.335938 6.550781 0.171875 5.15625 0.171875 C 3.757812 0.171875 2.691406 -0.328125 1.953125 -1.328125 C 1.222656 -2.335938 0.859375 -3.804688 0.859375 -5.734375 C 0.859375 -7.617188 1.222656 -9.054688 1.953125 -10.046875 C 2.679688 -11.035156 3.753906 -11.53125 5.171875 -11.53125 C 6.554688 -11.53125 7.617188 -11.039062 8.359375 -10.0625 C 9.097656 -9.09375 9.46875 -7.648438 9.46875 -5.734375 Z M 7.78125 -5.734375 C 7.78125 -8.722656 6.910156 -10.21875 5.171875 -10.21875 C 3.421875 -10.21875 2.546875 -8.722656 2.546875 -5.734375 C 2.546875 -4.210938 2.765625 -3.066406 3.203125 -2.296875 C 3.648438 -1.523438 4.304688 -1.140625 5.171875 -1.140625 C 6.078125 -1.140625 6.738281 -1.53125 7.15625 -2.3125 C 7.570312 -3.101562 7.78125 -4.242188 7.78125 -5.734375 Z M 7.78125 -5.734375 "/></g></g></g><g fill="#000001" fill-opacity="1"><g transform="translate(370.688811, 408.516091)"><g><path d="M 5.96875 -10.046875 L 5.96875 0 L 4.375 0 L 4.375 -10.046875 L 0.640625 -10.046875 L 0.640625 -11.359375 L 9.6875 -11.359375 L 9.6875 -10.046875 Z M 5.96875 -10.046875 "/></g></g></g><g fill="#000001" fill-opacity="1"><g transform="translate(382.405191, 408.516091)"><g><path d="M 9.46875 -5.734375 C 9.46875 -3.835938 9.097656 -2.378906 8.359375 -1.359375 C 7.617188 -0.335938 6.550781 0.171875 5.15625 0.171875 C 3.757812 0.171875 2.691406 -0.328125 1.953125 -1.328125 C 1.222656 -2.335938 0.859375 -3.804688 0.859375 -5.734375 C 0.859375 -7.617188 1.222656 -9.054688 1.953125 -10.046875 C 2.679688 -11.035156 3.753906 -11.53125 5.171875 -11.53125 C 6.554688 -11.53125 7.617188 -11.039062 8.359375 -10.0625 C 9.097656 -9.09375 9.46875 -7.648438 9.46875 -5.734375 Z M 7.78125 -5.734375 C 7.78125 -8.722656 6.910156 -10.21875 5.171875 -10.21875 C 3.421875 -10.21875 2.546875 -8.722656 2.546875 -5.734375 C 2.546875 -4.210938 2.765625 -3.066406 3.203125 -2.296875 C 3.648438 -1.523438 4.304688 -1.140625 5.171875 -1.140625 C 6.078125 -1.140625 6.738281 -1.53125 7.15625 -2.3125 C 7.570312 -3.101562 7.78125 -4.242188 7.78125 -5.734375 Z M 7.78125 -5.734375 "/></g></g></g><g fill="#e4401f" fill-opacity="1"><g transform="translate(149.383513, 279.866543)"><g><path d="M -0.382812 -2.410156 L -3.964844 -24.867188 C -5.347656 -24.53125 -6.832031 -24.296875 -8.25 -24.183594 C -6.902344 -20.40625 -5.15625 -12.359375 -4.367188 -7.027344 C -6.28125 -6.609375 -8.242188 -6.296875 -10.117188 -5.996094 C -11.058594 -11.1875 -11.890625 -17.660156 -12.273438 -21.503906 C -13.375 -21.214844 -14.636719 -21.011719 -15.800781 -20.941406 C -14.945312 -17.199219 -13.691406 -10.765625 -12.945312 -5.546875 C -14.929688 -5.199219 -16.921875 -4.910156 -18.917969 -4.648438 C -19.820312 -9.933594 -20.675781 -18.183594 -20.542969 -22.222656 C -21.925781 -21.886719 -23.355469 -21.660156 -24.746094 -21.554688 C -23.535156 -16.492188 -21.511719 -2.542969 -21.246094 0.917969 C -16.148438 -0.238281 -5.757812 -1.894531 -0.382812 -2.410156 Z M -0.382812 -2.410156 "/></g></g></g><g fill="#e4401f" fill-opacity="1"><g transform="translate(145.035396, 252.279196)"><g><path d="M 1.136719 -27.625 C -6.03125 -24.484375 -13.21875 -21.546875 -20.367188 -18.859375 C -20.082031 -16.804688 -20.359375 -12.871094 -20.699219 -10.84375 C -13.792969 -7.578125 -6.867188 -4.113281 0.015625 -0.398438 L 0.246094 -5.949219 C -1.089844 -6.574219 -2.597656 -7.230469 -4.128906 -7.945312 C -4.0625 -11.632812 -3.855469 -16.675781 -3.589844 -20.328125 C -2.0625 -20.859375 -0.539062 -21.335938 0.898438 -21.816406 Z M -6.96875 -9.253906 C -11.425781 -11.3125 -15.824219 -13.394531 -17.929688 -14.644531 C -14.511719 -16.320312 -10.53125 -17.886719 -6.554688 -19.285156 C -6.597656 -16.25 -6.757812 -12.285156 -6.96875 -9.253906 Z M -6.96875 -9.253906 "/></g></g></g><g fill="#e4401f" fill-opacity="1"><g transform="translate(146.441081, 223.182035)"><g><path d="M 2.421875 -10.003906 L 3.691406 -15.242188 C -0.675781 -16.007812 -8.136719 -17.726562 -13.78125 -19.238281 C -12.738281 -23.304688 -11.769531 -26.222656 -10.628906 -29.007812 C -11.976562 -29.101562 -13.246094 -29.410156 -14.484375 -29.941406 C -16.46875 -20.792969 -18.035156 -14.316406 -20.464844 -5.246094 C -19.117188 -5.15625 -17.847656 -4.847656 -16.609375 -4.3125 C -16.355469 -7.285156 -15.882812 -10.324219 -14.957031 -14.386719 C -9.273438 -13.15625 -1.808594 -11.320312 2.421875 -10.003906 Z M 2.421875 -10.003906 "/></g></g></g><g fill="#e4401f" fill-opacity="1"><g transform="translate(153.593098, 196.552964)"><g/></g></g><g fill="#e4401f" fill-opacity="1"><g transform="translate(156.684749, 186.905561)"><g><path d="M 7.832031 -13.328125 C 11.589844 -20.03125 11.71875 -24.378906 8.058594 -26.433594 C 4.074219 -28.664062 0.867188 -24.96875 -3.191406 -18.890625 C -6.417969 -14.066406 -8.046875 -12.378906 -10.027344 -13.488281 C -11.683594 -14.417969 -11.546875 -16.457031 -9.414062 -20.265625 C -6.890625 -24.765625 -3.542969 -27.894531 -0.746094 -30.101562 C -2.117188 -30.609375 -3.378906 -31.316406 -4.605469 -32.261719 C -7.398438 -29.246094 -9.625 -26.789062 -12.273438 -22.0625 C -16.046875 -15.335938 -16.082031 -11.03125 -12.398438 -8.964844 C -8.664062 -6.871094 -5.644531 -9.992188 -1.703125 -15.746094 C 1.859375 -21 3.410156 -23.1875 5.585938 -21.964844 C 7.21875 -21.050781 7.175781 -19.058594 5.109375 -15.375 C 2.570312 -10.847656 -1.460938 -6.152344 -4.992188 -5.074219 C -3.496094 -4.496094 -2.132812 -3.730469 -0.859375 -2.757812 C 2.050781 -5.222656 5.292969 -8.800781 7.832031 -13.328125 Z M 7.832031 -13.328125 "/></g></g></g><g fill="#e4401f" fill-opacity="1"><g transform="translate(172.136927, 160.953336)"><g><path d="M 1.5625 -2.019531 L 4.859375 -6.277344 C 0.46875 -9.175781 -7.894531 -15.652344 -11.878906 -19.167969 C -12.695312 -17.648438 -13.832031 -16.230469 -15.144531 -14.949219 C -10.742188 -11.972656 -2.421875 -5.535156 1.5625 -2.019531 Z M 1.5625 -2.019531 "/></g></g></g><g fill="#e4401f" fill-opacity="1"><g transform="translate(179.263811, 151.128224)"><g><path d="M 1.820312 -1.789062 L 5.765625 -5.664062 C 3.574219 -7.367188 1.484375 -9.371094 -0.425781 -11.3125 C 3.015625 -14.851562 7.199219 -18.6875 10.128906 -21.25 C 9.234375 -22 8.296875 -22.949219 7.625 -23.796875 C 5.03125 -20.890625 1.167969 -16.773438 -2.433594 -13.355469 C -4.023438 -14.933594 -5.59375 -16.53125 -7.082031 -18.167969 C -3.523438 -21.746094 2.132812 -26.671875 5.484375 -28.929688 C 4.40625 -29.859375 3.394531 -30.890625 2.480469 -31.984375 C -0.921875 -28.042969 -10.402344 -19 -12.988281 -16.855469 C -9.050781 -13.332031 -1.65625 -5.808594 1.820312 -1.789062 Z M 1.820312 -1.789062 "/></g></g></g><g fill="#e4401f" fill-opacity="1"><g transform="translate(197.661473, 132.75491)"><g><path d="M 13.304688 -8.09375 C 20.832031 -12.957031 23.0625 -19.226562 19.273438 -25.085938 C 15.488281 -30.945312 8.839844 -31.511719 1.316406 -26.644531 C -6.210938 -21.78125 -8.464844 -15.5 -4.660156 -9.617188 C -0.875 -3.757812 5.78125 -3.230469 13.304688 -8.09375 Z M 11.582031 -10.761719 C 6.628906 -7.558594 2.222656 -8.054688 -0.457031 -12.199219 C -3.164062 -16.390625 -1.898438 -20.753906 3.054688 -23.953125 C 7.960938 -27.125 12.53125 -26.535156 15.238281 -22.34375 C 17.917969 -18.199219 16.488281 -13.929688 11.582031 -10.761719 Z M 11.582031 -10.761719 "/></g></g></g><g fill="#e4401f" fill-opacity="1"><g transform="translate(224.585392, 115.473423)"><g><path d="M 14.769531 -4.945312 C 23.183594 -8.019531 26.746094 -13.640625 24.351562 -20.191406 C 21.957031 -26.742188 15.601562 -28.769531 7.1875 -25.691406 C -1.230469 -22.617188 -4.820312 -16.988281 -2.414062 -10.410156 C -0.0195312 -3.855469 6.351562 -1.867188 14.769531 -4.945312 Z M 13.679688 -7.925781 C 8.136719 -5.902344 3.953125 -7.363281 2.257812 -11.996094 C 0.546875 -16.683594 2.746094 -20.660156 8.285156 -22.683594 C 13.773438 -24.6875 18.097656 -23.097656 19.808594 -18.410156 C 21.503906 -13.777344 19.164062 -9.933594 13.679688 -7.925781 Z M 13.679688 -7.925781 "/></g></g></g><g fill="#e4401f" fill-opacity="1"><g transform="translate(254.683216, 104.60409)"><g><path d="M 2.417969 -0.3125 C 6.382812 -0.824219 10.355469 -1.277344 13.957031 -1.742188 C 23.519531 -2.976562 28.660156 -7.671875 27.796875 -14.367188 C 26.949219 -20.945312 21.015625 -24.15625 11.847656 -22.972656 C 8.023438 -22.480469 5.058594 -21.953125 -0.285156 -21.265625 C 0.648438 -16.46875 2.105469 -5.1875 2.417969 -0.3125 Z M 5.089844 -18.839844 C 7.597656 -19.136719 9.941406 -19.582031 11.796875 -19.820312 C 18.152344 -20.640625 22.300781 -18.402344 22.902344 -13.734375 C 23.515625 -8.980469 20.023438 -5.699219 13.554688 -4.867188 C 11.050781 -4.542969 8.640625 -4.402344 7 -4.25 C 6.277344 -9.1875 5.640625 -13.910156 5.089844 -18.839844 Z M 5.089844 -18.839844 "/></g></g></g><g fill="#e4401f" fill-opacity="1"><g transform="translate(286.695534, 101.418597)"><g><path d="M 1.332031 -1.648438 C 1.308594 -0.289062 2.207031 0.351562 4.078125 0.355469 C 3.742188 1.65625 2.957031 2.832031 2.027344 4.035156 C 2.480469 3.957031 2.9375 3.964844 3.359375 4.085938 C 4.800781 2.75 6.683594 0.601562 6.714844 -1.242188 C 6.746094 -2.914062 5.847656 -3.554688 4.0625 -3.585938 C 2.277344 -3.617188 1.359375 -3.011719 1.332031 -1.648438 Z M 1.332031 -1.648438 "/></g></g></g><g fill="#e4401f" fill-opacity="1"><g transform="translate(296.851078, 101.668277)"><g/></g></g><g fill="#e4401f" fill-opacity="1"><g transform="translate(306.984796, 102.00731)"><g><path d="M 2.375 0.558594 C 6.183594 1.449219 8.628906 2.199219 14.398438 3.554688 C 19.339844 4.714844 26.304688 5.707031 27.46875 0.738281 C 28.292969 -2.769531 25.328125 -5.039062 20.9375 -6.183594 L 21.023438 -6.542969 C 24.617188 -5.847656 27.8125 -6.4375 28.578125 -9.691406 C 29.433594 -13.335938 26.226562 -15.691406 19.710938 -17.21875 C 14.464844 -18.453125 10.941406 -19.191406 7.214844 -20.066406 C 6.332031 -14.824219 3.917969 -4.527344 2.375 0.558594 Z M 9.949219 -9.871094 C 10.414062 -11.976562 10.898438 -13.929688 11.382812 -15.738281 C 12.933594 -15.402344 15.667969 -14.761719 18.980469 -13.984375 C 22.210938 -13.226562 23.859375 -12.054688 23.347656 -9.871094 C 22.867188 -7.828125 20.976562 -7.222656 17.582031 -8.019531 C 14.902344 -8.648438 12.289062 -9.292969 9.949219 -9.871094 Z M 9.300781 -7.109375 C 11.652344 -6.585938 14.277344 -5.972656 16.953125 -5.34375 C 21.730469 -4.222656 22.6875 -2.714844 22.34375 -1.253906 C 21.960938 0.375 20.375 1.546875 15.40625 0.382812 C 11.929688 -0.433594 10.257812 -0.882812 8.089844 -1.453125 C 8.441406 -3.203125 8.859375 -5.230469 9.300781 -7.109375 Z M 9.300781 -7.109375 "/></g></g></g><g fill="#e4401f" fill-opacity="1"><g transform="translate(335.504372, 108.752838)"><g><path d="M 29.140625 2.050781 C 30.777344 -1.4375 32.601562 -5.1875 33.824219 -7.464844 C 32.265625 -7.882812 30.480469 -8.75 29.050781 -9.703125 C 28.109375 -7.296875 26.601562 -4.023438 24.675781 0.0820312 C 22.59375 4.523438 18.925781 6.0625 14.304688 3.894531 C 9.632812 1.699219 8.5 -2.089844 10.582031 -6.53125 C 12.507812 -10.636719 14.089844 -13.875 15.339844 -16.136719 C 13.78125 -16.554688 12 -17.425781 10.566406 -18.378906 C 9.625 -15.96875 8.097656 -12.582031 6.265625 -8.679688 C 3.289062 -2.339844 5.535156 3.289062 12.957031 6.769531 C 20.144531 10.140625 26.164062 8.394531 29.140625 2.050781 Z M 29.140625 2.050781 "/></g></g></g><g fill="#e4401f" fill-opacity="1"><g transform="translate(362.875686, 121.936185)"><g><path d="M 33.425781 -1.550781 C 31.675781 -2.523438 29.8125 -3.867188 28.773438 -4.988281 C 24.75 -3.558594 20.726562 -2.265625 16.679688 -1.132812 C 16.578125 -5.335938 16.636719 -9.5625 16.804688 -13.84375 C 15.429688 -14.511719 13.484375 -15.984375 12.019531 -17.386719 C 12.464844 -11.695312 12.726562 -5.996094 12.839844 -0.234375 C 11.46875 1.996094 9.917969 4.09375 8.183594 6.054688 L 12.148438 8.992188 C 13.519531 6.757812 15.070312 4.660156 16.804688 2.699219 C 22.324219 1.101562 27.875 -0.292969 33.425781 -1.550781 Z M 33.425781 -1.550781 "/></g></g></g><g fill="#e4401f" fill-opacity="1"><g transform="translate(384.096195, 138.447583)"><g/></g></g><g fill="#e4401f" fill-opacity="1"><g transform="translate(391.751752, 145.167479)"><g><path d="M 1.515625 1.910156 L 15.433594 19.425781 C 16.476562 18.457031 17.363281 17.75 18.765625 16.78125 C 15.875 14.191406 9.789062 7.214844 7.195312 3.953125 C 11.128906 0.648438 18.066406 -4.792969 21.375 -7.058594 C 20.125 -8.128906 18.988281 -9.652344 18.058594 -11.234375 C 12.691406 -6.679688 7.164062 -2.289062 1.515625 1.910156 Z M 1.515625 1.910156 "/></g></g></g><g fill="#e4401f" fill-opacity="1"><g transform="translate(408.76245, 166.333726)"><g><path d="M 6.59375 14.109375 C 10.605469 22.121094 16.59375 25.019531 22.832031 21.898438 C 29.070312 18.773438 30.355469 12.226562 26.34375 4.214844 C 22.328125 -3.796875 16.328125 -6.722656 10.066406 -3.585938 C 3.828125 -0.460938 2.578125 6.097656 6.59375 14.109375 Z M 9.433594 12.6875 C 6.789062 7.414062 7.765625 3.089844 12.175781 0.878906 C 16.636719 -1.355469 20.835938 0.378906 23.476562 5.652344 C 26.09375 10.875 25.007812 15.351562 20.546875 17.585938 C 16.132812 19.796875 12.050781 17.910156 9.433594 12.6875 Z M 9.433594 12.6875 "/></g></g></g><g fill="#e4401f" fill-opacity="1"><g transform="translate(422.950053, 195.035288)"><g><path d="M 3.394531 15.550781 C 4.730469 20.886719 6.804688 24.136719 9.835938 26.683594 C 10.890625 26.214844 12.359375 25.554688 14.027344 25.3125 C 9.917969 22.6875 7.832031 19.144531 6.855469 15.238281 C 5.203125 8.636719 7.402344 4.578125 11.859375 3.460938 C 16.589844 2.277344 20.234375 5.515625 21.75 11.683594 C 22.414062 14.441406 22.710938 18.429688 21.148438 23.527344 C 22.699219 22.9375 23.878906 22.640625 25.523438 22.433594 C 26.238281 17.578125 25.789062 13.800781 24.992188 10.609375 C 22.753906 1.671875 17.621094 -3.066406 10.660156 -1.324219 C 4.003906 0.34375 1.128906 6.5 3.394531 15.550781 Z M 3.394531 15.550781 "/></g></g></g><g fill="#e4401f" fill-opacity="1"><g transform="translate(430.237759, 224.949054)"><g><path d="M 1.003906 27.628906 C 7.90625 23.945312 14.847656 20.457031 21.765625 17.226562 C 21.324219 15.199219 21.292969 11.257812 21.476562 9.207031 C 14.339844 6.488281 7.167969 3.570312 0.015625 0.398438 L 0.214844 5.949219 C 1.597656 6.46875 3.148438 7.007812 4.730469 7.601562 C 4.949219 11.285156 5.132812 16.328125 5.152344 19.988281 C 3.671875 20.636719 2.191406 21.230469 0.792969 21.820312 Z M 7.664062 8.6875 C 12.265625 10.394531 16.8125 12.128906 19.011719 13.214844 C 15.730469 15.148438 11.882812 17.019531 8.03125 18.71875 C 7.835938 15.691406 7.691406 11.722656 7.664062 8.6875 Z M 7.664062 8.6875 "/></g></g></g><g fill="#e4401f" fill-opacity="1"><g transform="translate(431.089889, 254.065196)"><g><path d="M -0.390625 2.40625 L -3.96875 24.492188 C -2.550781 24.609375 -1.429688 24.789062 0.230469 25.171875 C 0.199219 21.289062 1.257812 12.097656 1.925781 7.980469 C 7.015625 8.664062 15.710938 10.128906 19.613281 11.046875 C 19.5625 9.402344 19.921875 7.535156 20.464844 5.785156 C 13.484375 4.882812 6.515625 3.753906 -0.390625 2.40625 Z M -0.390625 2.40625 "/></g></g></g><g clip-path="url(#a0e68d0128)"><path fill="#000001" d="M 194.265625 358.125 C 191.667969 356.777344 189.171875 355.234375 186.769531 353.527344 C 186.757812 353.25 186.625 352.972656 186.328125 352.789062 C 185.320312 352.15625 185.046875 347.84375 184.792969 346.609375 C 183.976562 342.648438 182.859375 338.765625 181.207031 335.066406 C 179.027344 330.191406 175.902344 325.757812 172.039062 322.066406 C 169.636719 319.777344 166.957031 317.761719 164.125 316.035156 C 161.453125 314.40625 157.566406 312.238281 156.628906 309.003906 C 156.628906 308.996094 156.625 308.992188 156.625 308.988281 C 156.609375 308.941406 156.59375 308.902344 156.574219 308.863281 C 156.417969 308.519531 156.113281 308.355469 155.796875 308.34375 C 155.460938 308.304688 155.117188 308.425781 154.925781 308.75 C 154.914062 308.765625 154.90625 308.78125 154.898438 308.792969 C 154.894531 308.800781 154.890625 308.804688 154.890625 308.808594 C 154.832031 308.90625 154.796875 309.011719 154.785156 309.132812 C 151.050781 323.28125 151.835938 344.765625 167.007812 352.03125 C 169.238281 353.097656 171.625 353.792969 174.070312 354.125 C 177.605469 354.601562 181.136719 353.699219 184.632812 354.300781 C 187.398438 356.34375 190.292969 358.175781 193.316406 359.75 C 194.386719 360.304688 195.339844 358.683594 194.265625 358.125 Z M 179.78125 336.464844 C 181.476562 340.390625 182.476562 344.53125 183.300781 348.710938 C 183.4375 349.40625 183.539062 350.320312 183.71875 351.226562 C 178.375 346.972656 173.570312 341.917969 169.355469 336.421875 C 169.300781 336.160156 169.140625 335.917969 168.863281 335.773438 C 168.859375 335.765625 168.855469 335.761719 168.851562 335.757812 C 168.910156 335.78125 168.949219 335.800781 168.976562 335.816406 C 168.96875 335.796875 168.964844 335.773438 168.980469 335.746094 C 169.058594 335.59375 168.738281 334.609375 168.714844 334.398438 C 168.441406 331.992188 168.851562 329.5 169.070312 327.109375 C 169.210938 325.5625 169.472656 323.890625 169.484375 322.28125 C 173.921875 326.195312 177.4375 331.03125 179.78125 336.464844 Z M 156.046875 311.90625 C 157.074219 313.292969 158.488281 314.433594 159.828125 315.445312 C 162.335938 317.335938 165.054688 318.847656 167.5625 320.71875 C 167.550781 320.796875 167.542969 320.878906 167.554688 320.972656 C 167.894531 324.332031 167.007812 327.921875 166.828125 331.261719 C 166.804688 331.648438 166.757812 332.210938 166.730469 332.839844 C 163.148438 327.714844 160.046875 322.304688 157.472656 316.871094 C 156.957031 315.777344 155.335938 316.730469 155.851562 317.820312 C 160.40625 327.4375 166.601562 336.992188 174.214844 345.027344 C 173.992188 345.175781 173.433594 345.386719 172.871094 345.351562 C 169.410156 345.117188 165.792969 341.59375 163.316406 339.585938 C 161.113281 337.796875 158.90625 335.957031 156.957031 333.886719 C 156.496094 333.398438 155.945312 332.882812 155.625 332.28125 C 154.285156 325.617188 154.601562 318.492188 156.046875 311.90625 Z M 174.277344 352.269531 C 171.683594 351.910156 169.117188 351.101562 166.828125 349.824219 C 162.359375 347.332031 159.226562 343.121094 157.398438 338.402344 C 157.121094 337.691406 156.871094 336.96875 156.640625 336.238281 C 159.589844 339.144531 162.882812 341.84375 166.261719 344.210938 C 167.902344 345.363281 173.511719 348.921875 175.589844 346.445312 C 177.628906 348.5 179.761719 350.445312 181.988281 352.253906 C 179.425781 352.265625 176.863281 352.628906 174.277344 352.269531 Z M 174.277344 352.269531 " fill-opacity="1" fill-rule="nonzero"/></g><path fill="#000001" d="M 168.976562 335.816406 C 168.996094 335.863281 169.0625 335.867188 168.976562 335.816406 Z M 168.976562 335.816406 " fill-opacity="1" fill-rule="nonzero"/><g clip-path="url(#1166726868)"><path fill="#000001" d="M 381.878906 355.875 C 384.476562 354.527344 386.972656 352.984375 389.375 351.277344 C 389.386719 351 389.519531 350.722656 389.816406 350.539062 C 390.824219 349.90625 391.097656 345.59375 391.351562 344.359375 C 392.167969 340.398438 393.285156 336.515625 394.9375 332.816406 C 397.117188 327.941406 400.242188 323.507812 404.105469 319.816406 C 406.507812 317.527344 409.1875 315.511719 412.019531 313.785156 C 414.691406 312.15625 418.578125 309.988281 419.515625 306.753906 C 419.515625 306.746094 419.519531 306.742188 419.523438 306.738281 C 419.535156 306.691406 419.550781 306.652344 419.570312 306.613281 C 419.726562 306.269531 420.03125 306.105469 420.351562 306.09375 C 420.683594 306.054688 421.027344 306.175781 421.21875 306.5 C 421.230469 306.515625 421.238281 306.53125 421.246094 306.542969 C 421.25 306.550781 421.253906 306.554688 421.253906 306.558594 C 421.3125 306.65625 421.347656 306.761719 421.363281 306.882812 C 425.09375 321.03125 424.308594 342.515625 409.136719 349.78125 C 406.910156 350.847656 404.519531 351.542969 402.074219 351.875 C 398.542969 352.351562 395.007812 351.449219 391.511719 352.050781 C 388.746094 354.09375 385.851562 355.925781 382.828125 357.5 C 381.757812 358.054688 380.804688 356.433594 381.878906 355.875 Z M 396.363281 334.214844 C 394.671875 338.140625 393.667969 342.28125 392.84375 346.460938 C 392.707031 347.15625 392.609375 348.070312 392.425781 348.976562 C 397.769531 344.722656 402.574219 339.667969 406.789062 334.171875 C 406.84375 333.910156 407.003906 333.667969 407.28125 333.523438 C 407.285156 333.515625 407.289062 333.511719 407.292969 333.507812 C 407.238281 333.53125 407.195312 333.550781 407.171875 333.566406 C 407.179688 333.546875 407.179688 333.523438 407.164062 333.496094 C 407.085938 333.34375 407.40625 332.359375 407.433594 332.148438 C 407.703125 329.742188 407.292969 327.25 407.078125 324.859375 C 406.933594 323.3125 406.671875 321.640625 406.660156 320.03125 C 402.222656 323.945312 398.707031 328.78125 396.363281 334.214844 Z M 420.097656 309.65625 C 419.070312 311.042969 417.65625 312.183594 416.320312 313.195312 C 413.808594 315.085938 411.089844 316.597656 408.582031 318.46875 C 408.59375 318.546875 408.601562 318.628906 408.59375 318.722656 C 408.25 322.082031 409.136719 325.671875 409.316406 329.011719 C 409.339844 329.398438 409.386719 329.960938 409.414062 330.589844 C 412.996094 325.464844 416.097656 320.054688 418.671875 314.621094 C 419.191406 313.527344 420.8125 314.480469 420.296875 315.570312 C 415.738281 325.1875 409.542969 334.742188 401.929688 342.777344 C 402.152344 342.925781 402.710938 343.136719 403.273438 343.101562 C 406.734375 342.867188 410.351562 339.34375 412.828125 337.335938 C 415.03125 335.546875 417.238281 333.707031 419.191406 331.636719 C 419.648438 331.148438 420.199219 330.632812 420.519531 330.03125 C 421.863281 323.367188 421.542969 316.242188 420.097656 309.65625 Z M 401.871094 350.019531 C 404.464844 349.660156 407.03125 348.851562 409.316406 347.574219 C 413.789062 345.082031 416.917969 340.871094 418.746094 336.152344 C 419.023438 335.441406 419.273438 334.71875 419.503906 333.988281 C 416.554688 336.894531 413.265625 339.59375 409.886719 341.960938 C 408.242188 343.113281 402.632812 346.671875 400.554688 344.195312 C 398.515625 346.25 396.382812 348.195312 394.15625 350.003906 C 396.71875 350.015625 399.28125 350.378906 401.871094 350.019531 Z M 401.871094 350.019531 " fill-opacity="1" fill-rule="nonzero"/></g><path fill="#000001" d="M 407.171875 333.566406 C 407.148438 333.613281 407.082031 333.617188 407.171875 333.566406 Z M 407.171875 333.566406 " fill-opacity="1" fill-rule="nonzero"/><g clip-path="url(#6909876dbf)"><path fill="#000001" d="M 149.960938 358.5625 C 147.441406 357.378906 145.253906 355.847656 143.320312 354.058594 C 142.082031 352.511719 145.152344 348.691406 145.871094 347.363281 C 146.675781 345.875 147.367188 344.277344 147.671875 342.605469 C 148.113281 340.207031 147.628906 337.847656 146.074219 335.941406 C 142.414062 331.457031 135.542969 330.035156 130.390625 328.058594 C 127.140625 326.808594 123.753906 325.386719 121.242188 322.898438 C 120.59375 322.257812 119.699219 323.066406 120.046875 323.820312 C 121.570312 327.160156 121.992188 330.800781 122.183594 334.46875 C 122.109375 334.632812 122.109375 334.824219 122.210938 335.023438 C 122.328125 337.59375 122.355469 340.175781 122.59375 342.667969 C 123.019531 347.191406 124.207031 352.222656 129.140625 353.496094 C 129.25 353.5625 129.390625 353.597656 129.5625 353.578125 C 133.976562 353.140625 138.273438 353.957031 142.445312 355.367188 C 144.449219 357.171875 146.695312 358.707031 149.191406 359.878906 C 150.074219 360.292969 150.847656 358.980469 149.960938 358.5625 Z M 145.835938 343.664062 C 145.070312 346.085938 143.457031 348.007812 142.457031 350.304688 C 142.183594 350.933594 141.871094 351.691406 141.714844 352.457031 C 140.175781 350.792969 138.816406 348.949219 137.59375 346.980469 C 141.324219 342.984375 140.160156 337.554688 138.539062 332.769531 C 143.191406 334.796875 147.671875 337.851562 145.835938 343.664062 Z M 136.613281 331.980469 C 136.628906 331.988281 136.644531 331.992188 136.660156 332 C 138.234375 336.375 139.96875 341.730469 136.769531 345.605469 C 136.5 345.140625 136.234375 344.667969 135.976562 344.1875 C 132.785156 338.222656 128.839844 332.597656 124.671875 327.246094 C 128.417969 329.289062 132.746094 330.480469 136.613281 331.980469 Z M 122.769531 327.289062 C 125.589844 330.898438 128.199219 334.621094 130.652344 338.457031 C 130.25 338.414062 129.773438 338.445312 129.457031 338.390625 C 128.296875 338.195312 127.257812 337.792969 126.292969 337.109375 C 125.296875 336.40625 124.371094 335.492188 123.671875 334.480469 C 123.535156 332.058594 123.308594 329.632812 122.769531 327.289062 Z M 129.636719 352.046875 C 124.28125 350.714844 124.136719 344.089844 123.90625 339.570312 C 123.863281 338.71875 123.828125 337.855469 123.789062 336.992188 C 125.09375 338.3125 126.710938 339.355469 128.484375 339.757812 C 128.695312 339.808594 130.414062 340.132812 131.65625 340.046875 C 133.003906 342.210938 134.304688 344.410156 135.566406 346.648438 C 136.871094 348.964844 138.40625 351.132812 140.164062 353.082031 C 136.734375 352.164062 133.210938 351.707031 129.636719 352.046875 Z M 129.636719 352.046875 " fill-opacity="1" fill-rule="nonzero"/></g><g clip-path="url(#031c3d7e6c)"><path fill="#000001" d="M 426.035156 358.5625 C 428.554688 357.378906 430.742188 355.847656 432.675781 354.058594 C 433.914062 352.511719 430.84375 348.691406 430.125 347.363281 C 429.320312 345.875 428.628906 344.277344 428.324219 342.605469 C 427.886719 340.207031 428.367188 337.847656 429.921875 335.941406 C 433.582031 331.457031 440.453125 330.035156 445.605469 328.058594 C 448.855469 326.808594 452.242188 325.386719 454.753906 322.898438 C 455.402344 322.257812 456.296875 323.066406 455.949219 323.820312 C 454.425781 327.160156 454.007812 330.800781 453.8125 334.46875 C 453.886719 334.632812 453.886719 334.824219 453.785156 335.023438 C 453.667969 337.59375 453.640625 340.175781 453.402344 342.667969 C 452.976562 347.191406 451.789062 352.222656 446.855469 353.496094 C 446.746094 353.5625 446.605469 353.597656 446.4375 353.578125 C 442.019531 353.140625 437.722656 353.957031 433.550781 355.367188 C 431.546875 357.171875 429.300781 358.707031 426.804688 359.878906 C 425.921875 360.292969 425.148438 358.980469 426.035156 358.5625 Z M 430.160156 343.664062 C 430.925781 346.085938 432.542969 348.007812 433.539062 350.304688 C 433.8125 350.933594 434.125 351.691406 434.28125 352.457031 C 435.820312 350.792969 437.179688 348.949219 438.40625 346.980469 C 434.671875 342.984375 435.835938 337.554688 437.457031 332.769531 C 432.804688 334.796875 428.324219 337.851562 430.160156 343.664062 Z M 439.382812 331.980469 C 439.367188 331.988281 439.351562 331.992188 439.335938 332 C 437.765625 336.375 436.027344 341.730469 439.226562 345.605469 C 439.496094 345.140625 439.761719 344.667969 440.019531 344.1875 C 443.210938 338.222656 447.15625 332.597656 451.324219 327.246094 C 447.578125 329.289062 443.25 330.480469 439.382812 331.980469 Z M 453.226562 327.289062 C 450.40625 330.898438 447.796875 334.621094 445.34375 338.457031 C 445.746094 338.414062 446.222656 338.445312 446.539062 338.390625 C 447.703125 338.195312 448.738281 337.792969 449.703125 337.109375 C 450.699219 336.40625 451.625 335.492188 452.324219 334.480469 C 452.460938 332.058594 452.6875 329.632812 453.226562 327.289062 Z M 446.359375 352.046875 C 451.714844 350.714844 451.859375 344.089844 452.089844 339.570312 C 452.136719 338.71875 452.167969 337.855469 452.207031 336.992188 C 450.902344 338.3125 449.285156 339.355469 447.511719 339.757812 C 447.300781 339.808594 445.582031 340.132812 444.339844 340.046875 C 442.992188 342.210938 441.691406 344.410156 440.429688 346.648438 C 439.125 348.964844 437.589844 351.132812 435.832031 353.082031 C 439.261719 352.164062 442.785156 351.707031 446.359375 352.046875 Z M 446.359375 352.046875 " fill-opacity="1" fill-rule="nonzero"/></g></svg>